/* XPM */
static char *close_inactive[] = {
/* columns rows colors chars-per-pixel */
"28 28 33 1 ",
"  c #B6B8BF",
". c #B6B8C0",
"X c #B7B9C1",
"o c #B7BAC0",
"O c #B7BBC2",
"+ c #B8BAC2",
"@ c #B8BBC2",
"# c #B8BCC3",
"$ c #B9BCC2",
"% c #BBBEC5",
"& c #BBBFC5",
"* c #BFC1C7",
"= c #C0C1C8",
"- c #C0C2C9",
"; c #CDCFD4",
": c #CECFD5",
"> c #CED0D6",
", c #D7D8DD",
"< c #DDDFE3",
"1 c #DEDFE2",
"2 c #DFE0E4",
"3 c #E0E1E5",
"4 c #E1E2E5",
"5 c #E3E4E7",
"6 c #E3E5E8",
"7 c #E4E5E8",
"8 c #E4E6E8",
"9 c #E5E6E9",
"0 c #E6E7EB",
"q c #E7E8EB",
"w c #EEEFF0",
"e c #EEEFF1",
"r c #EFEFF1",
/* pixels */
"eeeeeeeeeeeeeeeeeeeeeeeeeeee",
"qqqqqqqqqqqqqqqqqqqqqqqqqqqq",
"qqqqqqqqqqqqqqqqqqqqqqqqqqqq",
"qqqqqqqqqqqqqqqqqqqqqqqqqqqq",
"qqqqqqqqqqqqqqqqqqqqqqqqqqqq",
"qqqqqqqqqqqqqqqqqqqqqqqqqqqq",
"qqqqqqqqqqqqqqqqqqqqqqqqqqqq",
"qqqqqqqqqq5;=@@=:5qqqqqqqqqq",
"qqqqqqqqq,#......#,qqqqqqqqq",
"qqqqqqqq, ........ ,qqqqqqqq",
"qqqqqqq5#..&....%..@7qqqqqqq",
"qqqqqqq;...r9XX6r...:qqqqqqq",
"qqqqqqq*...2r98r3...=qqqqqqq",
"qqqqqqq#....3rr4....#qqqqqqq",
"qqqqqqq#...o9rr0+...@qqqqqqq",
"qqqqqqq=...9r<<r8...=qqqqqqq",
"qqqqqqq:...w1..1w...>qqqqqqq",
"qqqqqqq5#..........$7qqqqqqq",
"qqqqqqqq, ........ ,qqqqqqqq",
"qqqqqqqqq,@......$,qqqqqqqqq",
"qqqqqqqqqq7:-OO->7qqqqqqqqqq",
"qqqqqqqqqqqqqqqqqqqqqqqqqqqq",
"qqqqqqqqqqqqqqqqqqqqqqqqqqqq",
"qqqqqqqqqqqqqqqqqqqqqqqqqqqq",
"qqqqqqqqqqqqqqqqqqqqqqqqqqqq",
"qqqqqqqqqqqqqqqqqqqqqqqqqqqq",
"qqqqqqqqqqqqqqqqqqqqqqqqqqqq",
"qqqqqqqqqqqqqqqqqqqqqqqqqqqq"
};
