/* XPM */
static char *close_prelight[] = {
/* columns rows colors chars-per-pixel */
"28 28 34 1 ",
"  c #E7E8EB",
". c #E8DFE3",
"X c #E8E0E3",
"o c #E8E0E4",
"O c #ECC6CA",
"+ c #EEB2B6",
"@ c #EEB3B7",
"# c #EEB4B8",
"$ c #EEEFF1",
"% c #F39499",
"& c #F3949A",
"* c #F3D6D9",
"= c #F3D9DC",
"- c #F3DADD",
"; c #F3DBDE",
": c #F49398",
"> c #F4D3D6",
", c #F4E0E2",
"< c #F4E2E4",
"1 c #F4E3E4",
"2 c #F4E3E5",
"3 c #F4E4E5",
"4 c #F4E6E9",
"5 c #F5848A",
"6 c #F5858B",
"7 c #F5868C",
"8 c #F68086",
"9 c #F68288",
"0 c #F6848A",
"q c #F6868C",
"w c #F68D92",
"e c #F78D93",
"r c #F7F6F8",
"t c #F8F8F9",
/* pixels */
"$$$$$$$$$$$$$$$$$$$$$$$$$$$$",
"                            ",
"                            ",
"                            ",
"                            ",
"                            ",
"                            ",
"          .+%55%@.          ",
"         O68888886O         ",
"        O8888888888O        ",
"       .688e8888w887X       ",
"       +888t<99,t888@       ",
"       :888*t32t-888%       ",
"       68888=tt;88886       ",
"       688893tt408887       ",
"       %8881t**t1888%       ",
"       @888r>88>r888#       ",
"       .68888888888qo       ",
"        O8888888888O        ",
"         O7888888qO         ",
"          X@&66&#o          ",
"                            ",
"                            ",
"                            ",
"                            ",
"                            ",
"                            ",
"                            "
};
