/* XPM */
static char *close_active[] = {
/* columns rows colors chars-per-pixel */
"28 28 42 1 ",
"  c #E7E8EB",
". c #E8DCE0",
"X c #E8DDE0",
"o c #E8DEE1",
"O c #EBBBBF",
"+ c #EBBCC0",
"@ c #EDA2A6",
"# c #EDA2A7",
"$ c #EDA3A8",
"% c #EDA4A8",
"& c #EEEFF1",
"* c #F17A80",
"= c #F17A81",
"- c #F17B80",
"; c #F2797F",
": c #F2CED1",
"> c #F2D2D5",
", c #F3666D",
"< c #F3CACD",
"1 c #F3CED2",
"2 c #F3D3D7",
"3 c #F3D5D8",
"4 c #F3E3E5",
"5 c #F46067",
"6 c #F46168",
"7 c #F46269",
"8 c #F4646B",
"9 c #F4666D",
"0 c #F4676E",
"q c #F4686E",
"w c #F4686F",
"e c #F4DBDD",
"r c #F4DDDF",
"t c #F4DEE0",
"y c #F4DFE0",
"u c #F4DFE1",
"i c #F4E0E1",
"p c #F57076",
"a c #F57177",
"s c #F7F6F7",
"d c #F8F7F9",
"f c #F8F8F9",
/* pixels */
"&&&&&&&&&&&&&&&&&&&&&&&&&&&&",
"                            ",
"                            ",
"                            ",
"                            ",
"                            ",
"                            ",
"          .@*,,-#.          ",
"         O05555550+         ",
"        O6555555556+        ",
"       .055a5555p55qX       ",
"       @555dr77ef555$       ",
"       ;5551fuyf2555-       ",
"       05555>ff355550       ",
"       05558iff48555q       ",
"       *555rf::ft555-       ",
"       #555s<55<s555%       ",
"       .05555555555wo       ",
"        +6555555556+        ",
"         +q555555w+         ",
"          X$=99=%o          ",
"                            ",
"                            ",
"                            ",
"                            ",
"                            ",
"                            ",
"                            "
};
