/* XPM */
static char *close_pressed[] = {
/* columns rows colors chars-per-pixel */
"28 28 36 1 ",
"  c #E7E8EB",
". c #E8D8DC",
"X c #E8D9DD",
"o c #E8DADD",
"O c #EAABB0",
"+ c #EAACB1",
"@ c #EC898F",
"# c #EC8A8F",
"$ c #EC8A90",
"% c #EC8B91",
"& c #EEEFF1",
"* c #EF535A",
"= c #EF545B",
"- c #EF545C",
"; c #F05259",
": c #F13039",
"> c #F1313A",
", c #F1323B",
"< c #F13841",
"1 c #F13941",
"2 c #F13A42",
"3 c #F13A43",
"4 c #F13B44",
"5 c #F89B9F",
"6 c #F89EA2",
"7 c #F9A2A6",
"8 c #F9A4A8",
"9 c #F9A7AA",
"0 c #F9A7AB",
"q c #F9A8AC",
"w c #F9ACB0",
"e c #F9ADB1",
"r c #FAB0B4",
"t c snow",
"y c #FFFCFC",
"u c white",
/* pixels */
"&&&&&&&&&&&&&&&&&&&&&&&&&&&&",
"                            ",
"                            ",
"                            ",
"                            ",
"                            ",
"                            ",
"          .@*<<=#.          ",
"         O2::::::2+         ",
"        O>::::::::>+        ",
"       .2::::::::::3X       ",
"       @:::t6::5y:::$       ",
"       ;:::9u77ue:::=       ",
"       1:::>quur,:::2       ",
"       2:::>8uuw>:::3       ",
"       *:::7u00u7:::=       ",
"       #:::t7>>7t:::%       ",
"       .2::::::::::4o       ",
"        +>::::::::>+        ",
"         +3::::::4+         ",
"          X$-11-%o          ",
"                            ",
"                            ",
"                            ",
"                            ",
"                            ",
"                            ",
"                            "
};
