/* XPM */
static char *hide_inactive[] = {
/* columns rows colors chars-per-pixel */
"28 28 3 1 ",
"  c #B6B8C0",
". c #E7E8EB",
"X c #EEEFF1",
/* pixels */
"XXXXXXXXXXXXXXXXXXXXXXXXXXXX",
"............................",
"............................",
"............................",
"............................",
"............................",
"............................",
"............................",
"............................",
"............................",
"............................",
"............................",
"............................",
"...........      ...........",
"...........      ...........",
"............................",
"............................",
"............................",
"............................",
"............................",
"............................",
"............................",
"............................",
"............................",
"............................",
"............................",
"............................",
"............................"
};
