/* XPM */
static char *hide_active[] = {
/* columns rows colors chars-per-pixel */
"28 28 3 1 ",
"  c #90949E",
". c #E7E8EB",
"X c #EEEFF1",
/* pixels */
"XXXXXXXXXXXXXXXXXXXXXXXXXXXX",
"............................",
"............................",
"............................",
"............................",
"............................",
"............................",
"............................",
"............................",
"............................",
"............................",
"............................",
"............................",
"...........      ...........",
"...........      ...........",
"............................",
"............................",
"............................",
"............................",
"............................",
"............................",
"............................",
"............................",
"............................",
"............................",
"............................",
"............................",
"............................"
};
