/* XPM */
static char *hide_prelight[] = {
/* columns rows colors chars-per-pixel */
"28 28 20 1 ",
"  c #7A7F8B",
". c #D1D4DB",
"X c #D2D4DB",
"o c #D3D6DB",
"O c #D3D6DC",
"+ c #D5D7DC",
"@ c #D5D7DD",
"# c #DBDDE2",
"$ c #DCDEE2",
"% c #DFE1E5",
"& c #E0E1E6",
"* c #E3E4E8",
"= c #E5E6E9",
"- c #E7E8EB",
"; c #EEEFF1",
": c #F4F4F6",
"> c #F5F6F6",
", c #F5F6F7",
"< c gray99",
"1 c #FEFEFE",
/* pixels */
";;;;;;;;;;;;;;;;;;;;;;;;;;;;",
"----------------------------",
"----------------------------",
"----------------------------",
"----------------------------",
"----------------------------",
"----------------------------",
"----------=#+XX+#=----------",
"---------%O*:<<:*O%---------",
"--------%@,111111>@%--------",
"-------=O,11111111>O=-------",
"-------#*1111111111*$-------",
"-------+:1111111111:+-------",
"-------X<11      11<X-------",
"-------X<11      11<.-------",
"-------+:1111111111:+-------",
"-------#*1111111111*$-------",
"-------=O>11111111>o=-------",
"--------%@>111111>@&--------",
"---------%o*:<<:*o&---------",
"----------=$+XX+$=----------",
"----------------------------",
"----------------------------",
"----------------------------",
"----------------------------",
"----------------------------",
"----------------------------",
"----------------------------"
};
