/* XPM */
static char *hide_pressed[] = {
/* columns rows colors chars-per-pixel */
"28 28 23 1 ",
"  c #5294E2",
". c #5394E2",
"X c #5898E2",
"o c #5998E2",
"O c #5A98E2",
"+ c #5A99E3",
"@ c #5B99E3",
"# c #6EA4E3",
"$ c #6EA5E4",
"% c #6FA4E4",
"& c #99BDE6",
"* c #9ABDE6",
"= c #9BBDE6",
"- c #9BBEE6",
"; c #B5CCE8",
": c #B6CDE8",
"> c #B7CDE8",
", c #DAE1EA",
"< c #DBE1EB",
"1 c #DBE2EB",
"2 c #E7E8EB",
"3 c #EEEFF1",
"4 c white",
/* pixels */
"3333333333333333333333333333",
"2222222222222222222222222222",
"2222222222222222222222222222",
"2222222222222222222222222222",
"2222222222222222222222222222",
"2222222222222222222222222222",
"2222222222222222222222222222",
"2222222222,&#XX$*,2222222222",
"222222222;O      O:222222222",
"22222222;.        .:22222222",
"2222222,O          +<2222222",
"2222222&            =2222222",
"2222222#            $2222222",
"2222222o   444444   O2222222",
"2222222O   444444   +2222222",
"2222222#            $2222222",
"2222222*            -2222222",
"2222222,O          @12222222",
"22222222:.        .>22222222",
"222222222:+      @>222222222",
"2222222222<=%oo%-12222222222",
"2222222222222222222222222222",
"2222222222222222222222222222",
"2222222222222222222222222222",
"2222222222222222222222222222",
"2222222222222222222222222222",
"2222222222222222222222222222",
"2222222222222222222222222222"
};
