/* XPM */
static char *maximize_prelight[] = {
/* columns rows colors chars-per-pixel */
"28 28 29 1 ",
"  c #7A7F8B",
". c #9397A0",
"X c #9498A2",
"o c #A1A5AD",
"O c #A5A8B0",
"+ c #A8ABB3",
"@ c #D1D4DB",
"# c #D2D4DB",
"$ c #D3D6DB",
"% c #D3D6DC",
"& c #D5D7DC",
"* c #D5D7DD",
"= c #DBDDE2",
"- c #DCDEE2",
"; c #DFE1E5",
": c #E0E1E6",
"> c #E3E4E8",
", c #E5E6E9",
"< c #E7E8EB",
"1 c #EEEFF1",
"2 c #F4F4F6",
"3 c #F5F6F6",
"4 c #F5F6F7",
"5 c #FAFAFB",
"6 c #FBFBFC",
"7 c gray99",
"8 c #FCFCFD",
"9 c #FDFDFD",
"0 c #FEFEFE",
/* pixels */
"1111111111111111111111111111",
"<<<<<<<<<<<<<<<<<<<<<<<<<<<<",
"<<<<<<<<<<<<<<<<<<<<<<<<<<<<",
"<<<<<<<<<<<<<<<<<<<<<<<<<<<<",
"<<<<<<<<<<<<<<<<<<<<<<<<<<<<",
"<<<<<<<<<<<<<<<<<<<<<<<<<<<<",
"<<<<<<<<<<<<<<<<<<<<<<<<<<<<",
"<<<<<<<<<<,=&##&=,<<<<<<<<<<",
"<<<<<<<<<;%>2772>%;<<<<<<<<<",
"<<<<<<<<;*40000003*;<<<<<<<<",
"<<<<<<<,%4000000003%,<<<<<<<",
"<<<<<<<=>0006O  X00>-<<<<<<<",
"<<<<<<<&200606O  002&<<<<<<<",
"<<<<<<<#709o508+ 007#<<<<<<<",
"<<<<<<<#709 o508+007@<<<<<<<",
"<<<<<<<&209  O606002&<<<<<<<",
"<<<<<<<=>00.  O6000>-<<<<<<<",
"<<<<<<<,%3000000003$,<<<<<<<",
"<<<<<<<<;*30000003*:<<<<<<<<",
"<<<<<<<<<;$>2772>$:<<<<<<<<<",
"<<<<<<<<<<,-&##&-,<<<<<<<<<<",
"<<<<<<<<<<<<<<<<<<<<<<<<<<<<",
"<<<<<<<<<<<<<<<<<<<<<<<<<<<<",
"<<<<<<<<<<<<<<<<<<<<<<<<<<<<",
"<<<<<<<<<<<<<<<<<<<<<<<<<<<<",
"<<<<<<<<<<<<<<<<<<<<<<<<<<<<",
"<<<<<<<<<<<<<<<<<<<<<<<<<<<<",
"<<<<<<<<<<<<<<<<<<<<<<<<<<<<"
};
