/* XPM */
static char *maximize_pressed[] = {
/* columns rows colors chars-per-pixel */
"28 28 32 1 ",
"  c #5294E2",
". c #5394E2",
"X c #5395E2",
"o c #5495E2",
"O c #5596E3",
"+ c #5797E3",
"@ c #5898E2",
"# c #5998E2",
"$ c #5A98E2",
"% c #5A99E3",
"& c #5B99E3",
"* c #6EA4E3",
"= c #6EA5E4",
"- c #6FA4E4",
"; c #99BDE6",
": c #9ABDE6",
"> c #9BBDE6",
", c #9BBEE6",
"< c #B5CCE8",
"1 c #B6CDE8",
"2 c #B7CDE8",
"3 c #C3DAF5",
"4 c #C7DDF6",
"5 c #CCE0F6",
"6 c #DAE1EA",
"7 c #DBE1EB",
"8 c #DBE2EB",
"9 c #DDEAF9",
"0 c #DFEBFA",
"q c #E7E8EB",
"w c #EEEFF1",
"e c white",
/* pixels */
"wwwwwwwwwwwwwwwwwwwwwwwwwwww",
"qqqqqqqqqqqqqqqqqqqqqqqqqqqq",
"qqqqqqqqqqqqqqqqqqqqqqqqqqqq",
"qqqqqqqqqqqqqqqqqqqqqqqqqqqq",
"qqqqqqqqqqqqqqqqqqqqqqqqqqqq",
"qqqqqqqqqqqqqqqqqqqqqqqqqqqq",
"qqqqqqqqqqqqqqqqqqqqqqqqqqqq",
"qqqqqqqqqq6;*@@=:6qqqqqqqqqq",
"qqqqqqqqq<$      $1qqqqqqqqq",
"qqqqqqqq<.        .1qqqqqqqq",
"qqqqqqq6$          %7qqqqqqq",
"qqqqqqq;    O4ee9   >qqqqqqq",
"qqqqqqq*   O O4ee   =qqqqqqq",
"qqqqqqq#  X5+ o3e   $qqqqqqq",
"qqqqqqq$  Xe5+ o3   %qqqqqqq",
"qqqqqqq*  Xee4O O   =qqqqqqq",
"qqqqqqq:   0ee4O    ,qqqqqqq",
"qqqqqqq6$          &8qqqqqqq",
"qqqqqqqq1.        .2qqqqqqqq",
"qqqqqqqqq1%      &2qqqqqqqqq",
"qqqqqqqqqq7>-##-,8qqqqqqqqqq",
"qqqqqqqqqqqqqqqqqqqqqqqqqqqq",
"qqqqqqqqqqqqqqqqqqqqqqqqqqqq",
"qqqqqqqqqqqqqqqqqqqqqqqqqqqq",
"qqqqqqqqqqqqqqqqqqqqqqqqqqqq",
"qqqqqqqqqqqqqqqqqqqqqqqqqqqq",
"qqqqqqqqqqqqqqqqqqqqqqqqqqqq",
"qqqqqqqqqqqqqqqqqqqqqqqqqqqq"
};
