/* XPM */
static char *shade_active[] = {
/* columns rows colors chars-per-pixel */
"18 28 17 1 ",
"  c #A4AAB7",
". c #AFB4C0",
"X c #B1B6C0",
"o c #B4B9C4",
"O c #B6BBC5",
"+ c #BBBFC8",
"@ c #BCC1CA",
"# c #C0C3CD",
"$ c #C1C6CE",
"% c #E0E2E5",
"& c #E3E4E7",
"* c #E3E4E8",
"= c #E5E6EA",
"- c #E6E7E9",
"; c #E6E7EA",
": c #E7E8EB",
"> c #EEEFF1",
/* pixels */
">>>>>>>>>>>>>>>>>>",
"::::::::::::::::::",
"::::::::::::::::::",
"::::::::::::::::::",
"::::::::::::::::::",
"::::::::::::::::::",
"::::::::::::::::::",
"::::::::::::::::::",
"::::::::::::::::::",
"::::::::::::::::::",
"::::::::%%::::::::",
":::::::*X.&:::::::",
"::::::-O  o=::::::",
"::::::@    +;:::::",
":::::$      #:::::",
"::::::::::::::::::",
":::::        :::::",
":::::        :::::",
"::::::::::::::::::",
"::::::::::::::::::",
"::::::::::::::::::",
"::::::::::::::::::",
"::::::::::::::::::",
"::::::::::::::::::",
"::::::::::::::::::",
"::::::::::::::::::",
"::::::::::::::::::",
"::::::::::::::::::"
};
