/* XPM */
static char *shade_inactive[] = {
/* columns rows colors chars-per-pixel */
"18 28 16 1 ",
"  c #B9BFCE",
". c #C1C6D3",
"X c #C2C7D3",
"o c #C4C9D5",
"O c #C6CAD6",
"+ c #C9CDD8",
"@ c #C9CED9",
"# c #CCD0DA",
"$ c #CDD1DB",
"% c #E2E4E8",
"& c #E4E5E9",
"* c #E4E6E9",
"= c #E6E7EA",
"- c #E6E7EB",
"; c #E7E8EB",
": c #EEEFF1",
/* pixels */
"::::::::::::::::::",
";;;;;;;;;;;;;;;;;;",
";;;;;;;;;;;;;;;;;;",
";;;;;;;;;;;;;;;;;;",
";;;;;;;;;;;;;;;;;;",
";;;;;;;;;;;;;;;;;;",
";;;;;;;;;;;;;;;;;;",
";;;;;;;;;;;;;;;;;;",
";;;;;;;;;;;;;;;;;;",
";;;;;;;;;;;;;;;;;;",
";;;;;;;;%%;;;;;;;;",
";;;;;;;&X.*;;;;;;;",
";;;;;;=O  o=;;;;;;",
";;;;;;@    +-;;;;;",
";;;;;$      #;;;;;",
";;;;;;;;;;;;;;;;;;",
";;;;;        ;;;;;",
";;;;;        ;;;;;",
";;;;;;;;;;;;;;;;;;",
";;;;;;;;;;;;;;;;;;",
";;;;;;;;;;;;;;;;;;",
";;;;;;;;;;;;;;;;;;",
";;;;;;;;;;;;;;;;;;",
";;;;;;;;;;;;;;;;;;",
";;;;;;;;;;;;;;;;;;",
";;;;;;;;;;;;;;;;;;",
";;;;;;;;;;;;;;;;;;",
";;;;;;;;;;;;;;;;;;"
};
