/* XPM */
static char *title_4_active[] = {
/* columns rows colors chars-per-pixel */
"5 28 2 1 ",
"  c #E7E8EB",
". c #EEEFF1",
/* pixels */
".....",
"     ",
"     ",
"     ",
"     ",
"     ",
"     ",
"     ",
"     ",
"     ",
"     ",
"     ",
"     ",
"     ",
"     ",
"     ",
"     ",
"     ",
"     ",
"     ",
"     ",
"     ",
"     ",
"     ",
"     ",
"     ",
"     ",
"     "
};
