/* XPM */
static char *close_prelight[] = {
/* columns rows colors chars-per-pixel */
"28 28 42 1 ",
"  c #21252B",
". c #2F343F",
"X c #313540",
"o c #323540",
"O c #353B48",
"+ c #3C3944",
"@ c #3D3A44",
"# c #3E3A45",
"$ c #654A53",
"% c #674B53",
"& c #674B54",
"* c #684A54",
"= c #6D4E57",
"- c #6E4D56",
"; c #6F4E57",
": c #704E57",
"> c #704F58",
", c #714F57",
"< c #745058",
"1 c #7B535B",
"2 c #7C545C",
"3 c #7F545C",
"4 c #82555E",
"5 c #83565E",
"6 c #84575E",
"7 c #85565F",
"8 c #85575F",
"9 c #86575F",
"0 c #875860",
"q c #B66A70",
"w c #B76B71",
"e c #B86B71",
"r c #B86C72",
"t c #CD747A",
"y c #CE7479",
"u c #CE757A",
"i c #CF747A",
"p c #D0757B",
"a c #D5777C",
"s c #D5787D",
"d c #D6787D",
"f c #D7787D",
/* pixels */
"                            ",
"OOOOOOOOOOOOOOOOOOOOOOOOOOOO",
"............................",
"............................",
"............................",
"............................",
"............................",
"..........#9eppw8#..........",
".........&uffffffu%.........",
"........&dffffffffd%........",
".......#ufftffffyffy@.......",
".......9fffo,aa<Xfff7.......",
".......rfff4.-;.2fffw.......",
".......uffff3..1ffffu.......",
".......ufffs=..*afffy.......",
".......efff>.55.:fffw.......",
".......8fff#0ff0#fff6.......",
".......#ufffffffffft+.......",
"........%dffffffffd$........",
".........%yfffffft$.........",
"..........@7qiiq6+..........",
"............................",
"............................",
"............................",
"............................",
"............................",
"............................",
"............................"
};
