/* XPM */
static char *close_inactive[] = {
/* columns rows colors chars-per-pixel */
"28 28 34 1 ",
"  c #21252B",
". c #2F343F",
"X c #2F3440",
"o c #313641",
"O c #333844",
"+ c #343843",
"@ c #353B48",
"# c #414550",
"$ c #414651",
"% c #424651",
"& c #444853",
"* c #444953",
"= c #454953",
"- c #454A53",
"; c #454A55",
": c #484D57",
"> c #494E58",
", c #4A4F59",
"< c #4B4F59",
"1 c #4B4F5A",
"2 c #4B5059",
"3 c #4B505A",
"4 c #4C515B",
"5 c #5C5F69",
"6 c #5C6069",
"7 c #5C606A",
"8 c #636770",
"9 c #636771",
"0 c #636871",
"q c #646871",
"w c #656973",
"e c #666A72",
"r c #666A73",
"t c #666A74",
/* pixels */
"                            ",
"@@@@@@@@@@@@@@@@@@@@@@@@@@@@",
"............................",
"............................",
"............................",
"............................",
"............................",
"..........O36qq73O..........",
".........%9tttttt9$.........",
"........%rttttttttr$........",
".......O9tt8tttt8tt8+.......",
".......3ttto-rr;Xttt1.......",
".......6ttt,.&*.:ttt7.......",
".......9tttt>..:tttt9.......",
".......9tttw&..%ettt8.......",
".......6ttt=.22.*ttt7.......",
".......3tttO4tt4Ottt<.......",
".......O9tttttttttt8+.......",
"........$rttttttttr#........",
".........$8tttttt8#.........",
"..........+15005<+..........",
"............................",
"............................",
"............................",
"............................",
"............................",
"............................",
"............................"
};
