/* XPM */
static char *close_pressed[] = {
/* columns rows colors chars-per-pixel */
"28 28 39 1 ",
"  c #21252B",
". c #2F343F",
"X c #303440",
"o c #32343F",
"O c #353B48",
"+ c #3A343F",
"@ c #3B353F",
"# c #3B3540",
"$ c #5D3540",
"% c #5E3640",
"& c #5F353F",
"* c #5F3540",
"= c #643640",
"- c #65353F",
"; c #653540",
": c #663640",
"> c #673640",
", c #68363F",
"< c #693640",
"1 c #703640",
"2 c #713640",
"3 c #733640",
"4 c #763640",
"5 c #773640",
"6 c #783640",
"7 c #793640",
"8 c #7A3640",
"9 c #A23740",
"0 c #A23741",
"q c #A33741",
"w c #A43841",
"e c #B63841",
"r c #B73741",
"t c #B73840",
"y c #B83841",
"u c #BC3841",
"i c #BD3840",
"p c #BD3841",
"a c #BE3841",
/* pixels */
"                            ",
"OOOOOOOOOOOOOOOOOOOOOOOOOOOO",
"............................",
"............................",
"............................",
"............................",
"............................",
"..........#7qyy07#..........",
".........%eaaaaaae&.........",
"........%paaaaaaaap&........",
".......#eaaeaaaataat@.......",
".......7aaao,ii<Xaaa6.......",
".......waaa4.-;.2aaa0.......",
".......eaaaa3..1aaaae.......",
".......eaaap=..*uaaat.......",
".......qaaa>.44.:aaa0.......",
".......7aaa#8aa8#aaa5.......",
".......#eaaaaaaaaaae+.......",
"........&paaaaaaaap$........",
".........&taaaaaae$.........",
"..........@69rr95+..........",
"............................",
"............................",
"............................",
"............................",
"............................",
"............................",
"............................"
};
