/* XPM */
static char *close_active[] = {
/* columns rows colors chars-per-pixel */
"28 28 41 1 ",
"  c #21252B",
". c #2F343F",
"X c #313540",
"o c #323540",
"O c #353B48",
"+ c #3B3741",
"@ c #3C3742",
"# c #3D3842",
"$ c #623F49",
"% c #634049",
"& c #643F49",
"* c #69414B",
"= c #6A414A",
"- c #6B414A",
"; c #6B414B",
": c #6C424B",
"> c #6D424A",
", c #6F424B",
"< c #76444D",
"1 c #77444D",
"2 c #7A444D",
"3 c #7D454E",
"4 c #7D464E",
"5 c #7E464E",
"6 c #7F454E",
"7 c #80464F",
"8 c #81464E",
"9 c #81474F",
"0 c #AD5057",
"q c #AE5057",
"w c #AF5157",
"e c #AF5158",
"r c #C3555C",
"t c #C4555B",
"y c #C4555C",
"u c #C4565B",
"i c #C5555C",
"p c #CA565C",
"a c #CA575D",
"s c #CB575D",
"d c #CC575D",
/* pixels */
"                            ",
"OOOOOOOOOOOOOOOOOOOOOOOOOOOO",
"............................",
"............................",
"............................",
"............................",
"............................",
"..........#8wiiq7#..........",
".........%uddddddu%.........",
"........%sdddddddds%........",
".......#uddrddddtddt@.......",
".......8dddo>pp,Xddd6.......",
".......eddd3.=-.1dddq.......",
".......udddd2..<ddddu.......",
".......uddds*..&adddt.......",
".......wddd:.44.;dddq.......",
".......7ddd#9dd9#ddd5.......",
".......#uddddddddddr+.......",
"........%sdddddddds$........",
".........%tddddddr$.........",
"..........@60yy05+..........",
"............................",
"............................",
"............................",
"............................",
"............................",
"............................",
"............................"
};
