/* XPM */
static char *hide_prelight[] = {
/* columns rows colors chars-per-pixel */
"28 28 25 1 ",
"  c #21252B",
". c #252A33",
"X c #262A33",
"o c #262A34",
"O c #272B34",
"+ c #272C34",
"@ c #292C35",
"# c #292C36",
"$ c #2A2E38",
"% c #2C313A",
"& c #2C313B",
"* c #2F333E",
"= c #2F343E",
"- c #2F343F",
"; c #303641",
": c #303642",
"> c #353B48",
", c #3C4351",
"< c #3D4351",
"1 c #3D4352",
"2 c #3E4453",
"3 c #434A59",
"4 c #434A5A",
"5 c #454C5C",
"6 c #C4C7CC",
/* pixels */
"                            ",
">>>>>>>>>>>>>>>>>>>>>>>>>>>>",
"----------------------------",
"----------------------------",
"----------------------------",
"----------------------------",
"----------------------------",
"----------*$+..+$*----------",
"---------%o:<44<;o%---------",
"--------%@25555551#%--------",
"-------*o2555555551o*-------",
"-------$:5555555555;$-------",
"-------O,5555555555,+-------",
"-------.455666666554X-------",
"-------X455666666553X-------",
"-------+,5555555555,+-------",
"-------$;5555555555;$-------",
"-------*o1555555551o=-------",
"--------%@15555551#&--------",
"---------%o;,44<;o&---------",
"----------*$+..+$=----------",
"----------------------------",
"----------------------------",
"----------------------------",
"----------------------------",
"----------------------------",
"----------------------------",
"----------------------------"
};
