/* XPM */
static char *hide_pressed[] = {
/* columns rows colors chars-per-pixel */
"28 28 24 1 ",
"  c #21252B",
". c #2F343F",
"X c #313C4C",
"o c #323C4D",
"O c #323D4D",
"+ c #353B48",
"@ c #3A5374",
"# c #3A5475",
"$ c #3B5474",
"% c #406591",
"& c #416492",
"* c #416593",
"= c #416693",
"- c #4B81C2",
"; c #4B82C3",
": c #4C82C3",
"> c #4C83C4",
", c #508ED9",
"< c #508FD9",
"1 c #508FDA",
"2 c #5090DB",
"3 c #5293E1",
"4 c #5294E2",
"5 c white",
/* pixels */
"                            ",
"++++++++++++++++++++++++++++",
"............................",
"............................",
"............................",
"............................",
"............................",
"..........O=:22;*O..........",
".........#<444444<$.........",
"........#3444444443$........",
".......O<4444444444<o.......",
".......=444444444444&.......",
".......>444444444444;.......",
".......1444555555444<.......",
".......<444555555444<.......",
".......:444444444444;.......",
".......*444444444444%.......",
".......O<4444444444,X.......",
"........$3444444443@........",
".........$<444444,@.........",
"..........o&-11-%X..........",
"............................",
"............................",
"............................",
"............................",
"............................",
"............................",
"............................"
};
