/* XPM */
static char *maximize_active[] = {
/* columns rows colors chars-per-pixel */
"28 28 12 1 ",
"  c #21252B",
". c #2F343F",
"X c #303540",
"o c #313641",
"O c #323742",
"+ c #353B48",
"@ c #6E727B",
"# c #71757E",
"$ c #747780",
"% c #7D8189",
"& c #7E818A",
"* c #90939B",
/* pixels */
"                            ",
"++++++++++++++++++++++++++++",
"............................",
"............................",
"............................",
"............................",
"............................",
"............................",
"............................",
"............................",
"............................",
"............o#**%...........",
"...........o.o#**...........",
"..........X$O.X@*...........",
"..........X*$O.X@...........",
"..........X**#o.o...........",
"...........&**#o............",
"............................",
"............................",
"............................",
"............................",
"............................",
"............................",
"............................",
"............................",
"............................",
"............................",
"............................"
};
