/* XPM */
static char *maximize_prelight[] = {
/* columns rows colors chars-per-pixel */
"28 28 33 1 ",
"  c #21252B",
". c #252A33",
"X c #262A33",
"o c #262A34",
"O c #272B34",
"+ c #272C34",
"@ c #292C35",
"# c #292C36",
"$ c #2A2E38",
"% c #2C313A",
"& c #2C313B",
"* c #2F333E",
"= c #2F343E",
"- c #2F343F",
"; c #303641",
": c #303642",
"> c #353B48",
", c #3C4351",
"< c #3D4351",
"1 c #3D4352",
"2 c #3E4453",
"3 c #434A59",
"4 c #434A5A",
"5 c #454C5C",
"6 c #464D5D",
"7 c #484F5E",
"8 c #484F5F",
"9 c #989CA6",
"0 c #9B9FA8",
"q c #9EA2AB",
"w c #ACAFB6",
"e c #ADB0B7",
"r c #C4C7CC",
/* pixels */
"                            ",
">>>>>>>>>>>>>>>>>>>>>>>>>>>>",
"----------------------------",
"----------------------------",
"----------------------------",
"----------------------------",
"----------------------------",
"----------*$+..+$*----------",
"---------%o:<44<;o%---------",
"--------%@25555551#%--------",
"-------*o2555555551o*-------",
"-------$:55570rrw55;$-------",
"-------O,557570rr55,+-------",
"-------.456q8569r554X-------",
"-------X456rq8569553X-------",
"-------+,56rr075755,+-------",
"-------$;55err07555;$-------",
"-------*o1555555551o=-------",
"--------%@15555551#&--------",
"---------%o;,44<;o&---------",
"----------*$+..+$=----------",
"----------------------------",
"----------------------------",
"----------------------------",
"----------------------------",
"----------------------------",
"----------------------------",
"----------------------------"
};
