/* XPM */
static char *maximize_inactive[] = {
/* columns rows colors chars-per-pixel */
"28 28 12 1 ",
"  c #21252B",
". c #2F343F",
"X c #2F3440",
"o c #303540",
"O c #313641",
"+ c #353B48",
"@ c #535761",
"# c #545963",
"$ c #565A64",
"% c #5C5F69",
"& c #5C6069",
"* c #666A74",
/* pixels */
"                            ",
"++++++++++++++++++++++++++++",
"............................",
"............................",
"............................",
"............................",
"............................",
"............................",
"............................",
"............................",
"............................",
"............O#**%...........",
"...........O.O#**...........",
"..........X$o.o@*...........",
"..........X*$o.o@...........",
"..........X**#O.O...........",
"...........&**#O............",
"............................",
"............................",
"............................",
"............................",
"............................",
"............................",
"............................",
"............................",
"............................",
"............................",
"............................"
};
