/* XPM */
static char *maximize_pressed[] = {
/* columns rows colors chars-per-pixel */
"28 28 34 1 ",
"  c #21252B",
". c #2F343F",
"X c #313C4B",
"o c #323B4C",
"O c #323C4C",
"+ c #353B48",
"@ c #385171",
"# c #385272",
"$ c #395271",
"% c #3E628E",
"& c #3E628F",
"* c #3E6390",
"= c #3F628E",
"- c #4980C1",
"; c #4A80C0",
": c #4A80C1",
"> c #4A81C2",
", c #4F8DD8",
"< c #4F8ED9",
"1 c #508ED9",
"2 c #508FD9",
"3 c #5090DA",
"4 c #5293E1",
"5 c #5294E2",
"6 c #5395E2",
"7 c #5495E2",
"8 c #5596E3",
"9 c #5797E3",
"0 c #C3DAF5",
"q c #C7DDF6",
"w c #CCE0F6",
"e c #DDEAF9",
"r c #DFEBFA",
"t c white",
/* pixels */
"                            ",
"++++++++++++++++++++++++++++",
"............................",
"............................",
"............................",
"............................",
"............................",
"..........O*:33-&O..........",
".........#15555551$.........",
"........#4555555554$........",
".......O15555555555<o.......",
".......*55558qtte555=.......",
".......>555858qtt555-.......",
".......2556w9570t5551.......",
".......1556tw9570555<.......",
".......:556ttq858555-.......",
".......&555rttq85555%.......",
".......O15555555555,X.......",
"........$4555555554@........",
".........$<555555,@.........",
"..........o=;22;%X..........",
"............................",
"............................",
"............................",
"............................",
"............................",
"............................",
"............................"
};
