/* XPM */
static char *shade_pressed[] = {
/* columns rows colors chars-per-pixel */
"18 28 19 1 ",
"  c #21252B",
". c #2F343F",
"X c #2F3540",
"o c #303541",
"O c #303643",
"+ c #303948",
"@ c #313744",
"# c #313B4A",
"$ c #333E51",
"% c #353B48",
"& c #43699A",
"* c #446C9E",
"= c #4572A7",
"- c #4674AB",
"; c #497BB7",
": c #497DBA",
"> c #4C83C4",
", c #4C85C7",
"< c #5294E2",
/* pixels */
"                  ",
"%%%%%%%%%%%%%%%%%%",
"..................",
"..................",
"..................",
"..................",
"..................",
"..................",
"..................",
"..................",
"........$$........",
".......+>,#.......",
"......O;<<:@......",
".....X=<<<<-o.....",
".....&<<<<<<*.....",
"..................",
".....<<<<<<<<.....",
".....<<<<<<<<.....",
"..................",
"..................",
"..................",
"..................",
"..................",
"..................",
"..................",
"..................",
"..................",
".................."
};
