/* XPM */
static char *top_left_inactive[] = {
/* columns rows colors chars-per-pixel */
"2 28 4 1 ",
"  c #21252B",
". c #2F343F",
"X c #353B48",
"o c None",
/* pixels */
"o ",
" X",
" .",
" .",
" .",
" .",
" .",
" .",
" .",
" .",
" .",
" .",
" .",
" .",
" .",
" .",
" .",
" .",
" .",
" .",
" .",
" .",
" .",
" .",
" .",
" .",
" .",
" ."
};
