/* XPM */
static char * close_prelight_xpm[] = {
"24 24 40 1",
" 	c None",
".	c #EEEFF1",
"+	c #E7E8EB",
"@	c #E8E1E4",
"#	c #EFC0C4",
"$	c #F4AAAE",
"%	c #F6A0A4",
"&	c #F4ABAF",
"*	c #EFC1C5",
"=	c #ECCED2",
"-	c #F79DA1",
";	c #EBCFD2",
">	c #F69DA1",
",	c #F7A3A7",
"'	c #F7A2A6",
")	c #F6A1A5",
"!	c #E7E1E4",
"~	c #FFFDFD",
"{	c #FCD9DA",
"]	c #F79EA2",
"^	c #FCD7D9",
"/	c #FFFEFE",
"(	c #F3AAAE",
"_	c #FBCFD1",
":	c #FFFFFF",
"<	c #FCDADC",
"[	c #FCDADB",
"}	c #FBD2D3",
"|	c #FBD0D2",
"1	c #FBD3D5",
"2	c #FCDEDF",
"3	c #F79FA2",
"4	c #FCD9DB",
"5	c #FBCED0",
"6	c #FEF7F7",
"7	c #FBCBCE",
"8	c #F6A1A6",
"9	c #E7E1E5",
"0	c #EBCFD3",
"a	c #F4ABAE",
"........................",
"++++++++++++++++++++++++",
"++++++++++++++++++++++++",
"++++++++++++++++++++++++",
"++++++++++++++++++++++++",
"++++++++@#$%%&*@++++++++",
"+++++++=%------%;+++++++",
"++++++=>-------->;++++++",
"+++++@%--,----'--)!+++++",
"+++++#---~{]]^/---*+++++",
"+++++(---_:<[:}---&+++++",
"+++++%----|::1----%+++++",
"+++++%---]<::23---)+++++",
"+++++$---4:55:4---&+++++",
"+++++*---67--76---*+++++",
"+++++@%----------89+++++",
"++++++;>-------->0++++++",
"+++++++;)------80+++++++",
"++++++++!*a%%a*9++++++++",
"++++++++++++++++++++++++",
"++++++++++++++++++++++++",
"++++++++++++++++++++++++",
"++++++++++++++++++++++++",
"++++++++++++++++++++++++"};
