/* XPM */
static char * close_active_xpm[] = {
"24 24 41 1",
" 	c None",
".	c #EEEFF1",
"+	c #E7E8EB",
"@	c #E8DDE0",
"#	c #EDA9AE",
"$	c #F0868C",
"%	c #F3757B",
"&	c #EDAAAF",
"*	c #EBBFC3",
"=	c #F2767B",
"-	c #F37076",
";	c #EAC0C4",
">	c #F27076",
",	c #F4787E",
"'	c #F2767D",
")	c #E7DDE1",
"!	c #FFFCFC",
"~	c #FAC7C9",
"{	c #F37177",
"]	c #FAC5C7",
"^	c #FFFEFE",
"/	c #F0868B",
"(	c #F9B8BB",
"_	c #FFFFFF",
":	c #FAC9CB",
"<	c #F9BDC0",
"[	c #F2757B",
"}	c #F9BBBE",
"|	c #FABFC1",
"1	c #F37278",
"2	c #FBCACC",
"3	c #FBCFD1",
"4	c #FAC7CA",
"5	c #FAC8CA",
"6	c #FEF3F3",
"7	c #F9B4B7",
"8	c #EDABB0",
"9	c #F2777C",
"0	c #E7DEE1",
"a	c #EAC1C5",
"b	c #F0878C",
"........................",
"++++++++++++++++++++++++",
"++++++++++++++++++++++++",
"++++++++++++++++++++++++",
"++++++++++++++++++++++++",
"++++++++@#$%%$&@++++++++",
"+++++++*=------=;+++++++",
"++++++*>-------->;++++++",
"+++++@=--,----,--')+++++",
"+++++#---!~{{]^---&+++++",
"+++++/---(_::_<---$+++++",
"+++++[----}__|----=+++++",
"+++++=---12__31---'+++++",
"+++++$---4_((_5---$+++++",
"+++++&---67--76---8+++++",
"+++++@=----------90+++++",
"++++++;>-------->a++++++",
"+++++++;'------9a+++++++",
"++++++++)&b[[b80++++++++",
"++++++++++++++++++++++++",
"++++++++++++++++++++++++",
"++++++++++++++++++++++++",
"++++++++++++++++++++++++",
"++++++++++++++++++++++++"};
