/* XPM */
static char * maximize_prelight_xpm[] = {
"24 24 45 1",
" 	c None",
".	c #EEEFF1",
"+	c #E7E8EB",
"@	c #DAE1E9",
"#	c #99BDE6",
"$	c #6EA3E2",
"%	c #5897E2",
"&	c #6EA4E4",
"*	c #9ABCE6",
"=	c #B5CBE7",
"-	c #5D9AE2",
";	c #96BBE9",
">	c #D4E2F4",
",	c #F4F6FB",
"'	c #95BBE8",
")	c #B5CCE7",
"!	c #629EE2",
"~	c #D9E6F5",
"{	c #FCFCFD",
"]	c #D8E6F5",
"^	c #639DE2",
"/	c #DAE0EA",
"(	c #FAFAFB",
"_	c #A1A5B4",
":	c #747C90",
"<	c #8F96A6",
"[	c #94BBE8",
"}	c #9BBCE6",
"|	c #6DA3E3",
"1	c #D3E1F4",
"2	c #5997E2",
"3	c #FBFBFC",
"4	c #9CA3AF",
"5	c #F9F9F9",
"6	c #A3A9B5",
"7	c #5998E1",
"8	c #F1F5FA",
"9	c #5998E2",
"0	c #8E95A5",
"a	c #9BBDE5",
"b	c #5E9AE2",
"c	c #DAE1EA",
"d	c #B6CDE8",
"e	c #D2E1F4",
"f	c #6FA4E3",
"........................",
"++++++++++++++++++++++++",
"++++++++++++++++++++++++",
"++++++++++++++++++++++++",
"++++++++++++++++++++++++",
"++++++++@#$%%&*@++++++++",
"+++++++=-;>,,>'-)+++++++",
"++++++=!~{{{{{{]^)++++++",
"+++++@-~{{{{{{{{]-/+++++",
"+++++#;{{{(_::<{{[}+++++",
"+++++|>{{({(_::{{1&+++++",
"+++++2,{345{36:{{,7+++++",
"+++++7,{3:45{36{{89+++++",
"+++++$>{3::_({({{1&+++++",
"+++++*'{{0::_({{{[a+++++",
"+++++@-]{{{{{{{{]bc+++++",
"++++++)!]{{{{{{]^d++++++",
"+++++++)-[1,,e[bd+++++++",
"++++++++/}f22fac++++++++",
"++++++++++++++++++++++++",
"++++++++++++++++++++++++",
"++++++++++++++++++++++++",
"++++++++++++++++++++++++",
"++++++++++++++++++++++++"};
