/* XPM */
static char * maximize_active_xpm[] = {
"24 24 28 1",
" 	c None",
".	c #EEEFF1",
"+	c #E7E8EB",
"@	c #E6E7EA",
"#	c #DFE1E5",
"$	c #DBDCE1",
"%	c #D9DBDF",
"&	c #DADCE1",
"*	c #E2E3E7",
"=	c #D9DBE1",
"-	c #E8E8EC",
";	c #F5F5F6",
">	c #FAFAFB",
",	c #DCDDE2",
"'	c #F5F6F6",
")	c #FCFCFD",
"!	c #C2C6CE",
"~	c #A7ACB9",
"{	c #B7BCC7",
"]	c #E7E8EC",
"^	c #F5F5F7",
"/	c #FAFAFC",
"(	c #C0C4CD",
"_	c #F9FAFB",
":	c #FBFBFC",
"<	c #C4C8D0",
"[	c #B7BBC6",
"}	c #F3F4F6",
"........................",
"++++++++++++++++++++++++",
"++++++++++++++++++++++++",
"++++++++++++++++++++++++",
"++++++++++++++++++++++++",
"++++++++@#$%%&#@++++++++",
"+++++++*=-;>>;-=*+++++++",
"++++++*,'))))))',*++++++",
"+++++@='))))))))'=@+++++",
"+++++#-)))>!~~{))]#+++++",
"+++++$;))>)>!~~))^&+++++",
"+++++%/))(_):<~))/%+++++",
"+++++%/))~(_):<))/%+++++",
"+++++$;))~~!>)>))^&+++++",
"+++++#-))[~~!>)))]#+++++",
"+++++@='))))))))'=@+++++",
"++++++*,'))))))',*++++++",
"+++++++*=]^//}]=*+++++++",
"++++++++@#&%%&#@++++++++",
"++++++++++++++++++++++++",
"++++++++++++++++++++++++",
"++++++++++++++++++++++++",
"++++++++++++++++++++++++",
"++++++++++++++++++++++++"};
