/* XPM */
static char * top_left_inactive_xpm[] = {
"5 24 3 1",
" 	c None",
".	c #EEEFF1",
"+	c #E7E8EB",
"   ..",
" ..++",
" .+++",
".++++",
"+++++",
"+++++",
"+++++",
"+++++",
"+++++",
"+++++",
"+++++",
"+++++",
"+++++",
"+++++",
"+++++",
"+++++",
"+++++",
"+++++",
"+++++",
"+++++",
"+++++",
"+++++",
"+++++",
"+++++"};
