/* XPM */
static char * close_pressed_xpm[] = {
"24 24 46 1",
" 	c None",
".	c #111215",
"+	c #353B44",
"@	c #2F343B",
"#	c #3E3239",
"$	c #8D2D34",
"%	c #C32831",
"&	c #DE262F",
"*	c #C22831",
"=	c #6C2F37",
"-	c #DC262F",
";	c #E6262F",
">	c #6B2F36",
",	c #E5262F",
"'	c #E7333B",
")	c #E7323A",
"!	c #DB262F",
"~	c #3E323A",
"{	c #FFFBFB",
"]	c #F5AAAD",
"^	c #E62831",
"/	c #F5A6AA",
"(	c #FFFDFD",
"_	c #8C2C34",
":	c #C42831",
"<	c #F39498",
"[	c #FFFFFF",
"}	c #F6ADB1",
"|	c #F5ACB0",
"1	c #F39B9F",
"2	c #DD262F",
"3	c #F3989C",
"4	c #F49DA1",
"5	c #E62931",
"6	c #F6AEB2",
"7	c #F7B6B9",
"8	c #E62932",
"9	c #F5ABAE",
"0	c #F39397",
"a	c #F5ACAF",
"b	c #FDECED",
"c	c #F28D92",
"d	c #8B2C34",
"e	c #3D323A",
"f	c #692F37",
"g	c #C22931",
"........................",
"++++++++++++++++++++++++",
"@@@@@@@@@@@@@@@@@@@@@@@@",
"@@@@@@@@@@@@@@@@@@@@@@@@",
"@@@@@@@@@@@@@@@@@@@@@@@@",
"@@@@@@@@#$%&&*$#@@@@@@@@",
"@@@@@@@=-;;;;;;->@@@@@@@",
"@@@@@@=,;;;;;;;;,>@@@@@@",
"@@@@@#-;;';;;;);;!~@@@@@",
"@@@@@$;;;{]^^/(;;;_@@@@@",
"@@@@@:;;;<[}|[1;;;*@@@@@",
"@@@@@2;;;;3[[4;;;;-@@@@@",
"@@@@@-;;;56[[78;;;!@@@@@",
"@@@@@%;;;9[00[a;;;*@@@@@",
"@@@@@$;;;bc;;cb;;;d@@@@@",
"@@@@@#-;;;;;;;;;;!e@@@@@",
"@@@@@@>,;;;;;;;;,f@@@@@@",
"@@@@@@@>!;;;;;;!f@@@@@@@",
"@@@@@@@@~_g22gde@@@@@@@@",
"@@@@@@@@@@@@@@@@@@@@@@@@",
"@@@@@@@@@@@@@@@@@@@@@@@@",
"@@@@@@@@@@@@@@@@@@@@@@@@",
"@@@@@@@@@@@@@@@@@@@@@@@@",
"@@@@@@@@@@@@@@@@@@@@@@@@"};
