/* XPM */
static char * close_prelight_xpm[] = {
"24 24 40 1",
" 	c None",
".	c #21252B",
"+	c #353B48",
"@	c #2F343F",
"#	c #3D3944",
"$	c #85575F",
"%	c #B86A70",
"&	c #CF757A",
"*	c #B66A71",
"=	c #84575E",
"-	c #674A54",
";	c #CE7479",
">	c #D7787D",
",	c #664A53",
"'	c #D6777C",
")	c #CD7479",
"!	c #3D3943",
"~	c #32343F",
"{	c #704E57",
"]	c #D5777C",
"^	c #734F58",
"/	c #30343F",
"(	c #85565F",
"_	c #B86B71",
":	c #82555D",
"<	c #6E4D56",
"[	c #6F4E56",
"}	c #7C535B",
"|	c #7E545B",
"1	c #7A525A",
"2	c #6D4D56",
"3	c #674A53",
"4	c #D4767C",
"5	c #6F4E57",
"6	c #83565E",
"7	c #875760",
"8	c #3C3844",
"9	c #654A52",
"0	c #B66970",
"a	c #CF747A",
"........................",
"++++++++++++++++++++++++",
"@@@@@@@@@@@@@@@@@@@@@@@@",
"@@@@@@@@@@@@@@@@@@@@@@@@",
"@@@@@@@@@@@@@@@@@@@@@@@@",
"@@@@@@@@#$%&&*=#@@@@@@@@",
"@@@@@@@-;>>>>>>;,@@@@@@@",
"@@@@@@-'>>>>>>>>',@@@@@@",
"@@@@@#;>>)>>>>)>>)!@@@@@",
"@@@@@$>>>~{]]^/>>>(@@@@@",
"@@@@@_>>>:@<[@}>>>*@@@@@",
"@@@@@;>>>>|@@1>>>>;@@@@@",
"@@@@@;>>>]2@@34>>>)@@@@@",
"@@@@@%>>>5@66@[>>>*@@@@@",
"@@@@@=>>>#7>>7#>>>6@@@@@",
"@@@@@#;>>>>>>>>>>)8@@@@@",
"@@@@@@,'>>>>>>>>'9@@@@@@",
"@@@@@@@,)>>>>>>)9@@@@@@@",
"@@@@@@@@!(0aa068@@@@@@@@",
"@@@@@@@@@@@@@@@@@@@@@@@@",
"@@@@@@@@@@@@@@@@@@@@@@@@",
"@@@@@@@@@@@@@@@@@@@@@@@@",
"@@@@@@@@@@@@@@@@@@@@@@@@",
"@@@@@@@@@@@@@@@@@@@@@@@@"};
