/* XPM */
static char * close_active_xpm[] = {
"28 28 39 1",
" 	c None",
".	c #21252B",
"+	c #353B48",
"@	c #2F343F",
"#	c #3C3741",
"$	c #80464E",
"%	c #AE5056",
"&	c #C5555B",
"*	c #AD5057",
"=	c #7F464E",
"-	c #633F49",
";	c #C3555B",
">	c #CC575D",
",	c #623F49",
"'	c #CB565C",
")	c #C2545C",
"!	c #3C3641",
"~	c #32343F",
"{	c #6C414A",
"]	c #CA565C",
"^	c #6F414B",
"/	c #30343F",
"(	c #7F454D",
"_	c #AF5057",
":	c #7C454D",
"<	c #6A414A",
"[	c #6B414A",
"}	c #77434C",
"|	c #79444D",
"1	c #75434C",
"2	c #69404A",
"3	c #643F48",
"4	c #C9565C",
"5	c #7D464E",
"6	c #81464E",
"7	c #7E454E",
"8	c #3B3641",
"9	c #613F48",
"0	c #C4555B",
"............................",
"++++++++++++++++++++++++++++",
"@@@@@@@@@@@@@@@@@@@@@@@@@@@@",
"@@@@@@@@@@@@@@@@@@@@@@@@@@@@",
"@@@@@@@@@@@@@@@@@@@@@@@@@@@@",
"@@@@@@@@@@@@@@@@@@@@@@@@@@@@",
"@@@@@@@@@@@@@@@@@@@@@@@@@@@@",
"@@@@@@@@@@#$%&&*=#@@@@@@@@@@",
"@@@@@@@@@-;>>>>>>;,@@@@@@@@@",
"@@@@@@@@-'>>>>>>>>',@@@@@@@@",
"@@@@@@@#;>>)>>>>;>>;!@@@@@@@",
"@@@@@@@$>>>~{]]^/>>>(@@@@@@@",
"@@@@@@@_>>>:@<[@}>>>*@@@@@@@",
"@@@@@@@;>>>>|@@1>>>>;@@@@@@@",
"@@@@@@@;>>>]2@@34>>>;@@@@@@@",
"@@@@@@@%>>>[@55@<>>>*@@@@@@@",
"@@@@@@@=>>>#6>>6#>>>7@@@@@@@",
"@@@@@@@#;>>>>>>>>>>)8@@@@@@@",
"@@@@@@@@,'>>>>>>>>'9@@@@@@@@",
"@@@@@@@@@,;>>>>>>)9@@@@@@@@@",
"@@@@@@@@@@!(*00*78@@@@@@@@@@",
"@@@@@@@@@@@@@@@@@@@@@@@@@@@@",
"@@@@@@@@@@@@@@@@@@@@@@@@@@@@",
"@@@@@@@@@@@@@@@@@@@@@@@@@@@@",
"@@@@@@@@@@@@@@@@@@@@@@@@@@@@",
"@@@@@@@@@@@@@@@@@@@@@@@@@@@@",
"@@@@@@@@@@@@@@@@@@@@@@@@@@@@",
"@@@@@@@@@@@@@@@@@@@@@@@@@@@@"};
