/* XPM */
static char * close_prelight_xpm[] = {
"24 24 43 1",
" 	c None",
".	c #111215",
"+	c #353B44",
"@	c #2F343B",
"#	c #3F3A40",
"$	c #945B61",
"%	c #CE7177",
"&	c #EB7C81",
"*	c #CE7175",
"=	c #935B60",
"-	c #704D53",
";	c #E97C81",
">	c #F48085",
",	c #6F4D53",
"'	c #F37F84",
")	c #F5878C",
"!	c #E97B80",
"~	c #3F3A41",
"{	c #FFFDFD",
"]	c #FBCDCF",
"^	c #F48186",
"/	c #FBCBCD",
"(	c #FFFEFE",
"_	c #925A60",
":	c #CF7176",
"<	c #FAC0C3",
"[	c #FFFFFF",
"}	c #FBCFD1",
"|	c #FAC4C7",
"1	c #FAC3C5",
"2	c #FAC6C8",
"3	c #FBD0D2",
"4	c #FBD4D6",
"5	c #F48287",
"6	c #FBCED0",
"7	c #FAC0C2",
"8	c #FEF4F4",
"9	c #F9BCBF",
"0	c #925A5F",
"a	c #E87B80",
"b	c #3E3940",
"c	c #6E4C53",
"d	c #CD7176",
"........................",
"++++++++++++++++++++++++",
"@@@@@@@@@@@@@@@@@@@@@@@@",
"@@@@@@@@@@@@@@@@@@@@@@@@",
"@@@@@@@@@@@@@@@@@@@@@@@@",
"@@@@@@@@#$%&&*=#@@@@@@@@",
"@@@@@@@-;>>>>>>;,@@@@@@@",
"@@@@@@-'>>>>>>>>',@@@@@@",
"@@@@@#;>>)>>>>)>>!~@@@@@",
"@@@@@$>>>{]^^/(>>>_@@@@@",
"@@@@@:>>><[}}[|>>>*@@@@@",
"@@@@@&>>>>1[[2>>>>;@@@@@",
"@@@@@;>>>^3[[45>>>!@@@@@",
"@@@@@%>>>6[77[6>>>*@@@@@",
"@@@@@=>>>89>>98>>>0@@@@@",
"@@@@@#;>>>>>>>>>>ab@@@@@",
"@@@@@@,'>>>>>>>>'c@@@@@@",
"@@@@@@@,!>>>>>>ac@@@@@@@",
"@@@@@@@@~_d&&d0b@@@@@@@@",
"@@@@@@@@@@@@@@@@@@@@@@@@",
"@@@@@@@@@@@@@@@@@@@@@@@@",
"@@@@@@@@@@@@@@@@@@@@@@@@",
"@@@@@@@@@@@@@@@@@@@@@@@@",
"@@@@@@@@@@@@@@@@@@@@@@@@"};
