/* XPM */
static char * close_active_xpm[] = {
"24 24 47 1",
" 	c None",
".	c #111215",
"+	c #353B44",
"@	c #2F343B",
"#	c #3F383F",
"$	c #8D4A50",
"%	c #C2565D",
"&	c #DC5C64",
"*	c #C1565D",
"=	c #8C4951",
"-	c #6B4249",
";	c #DA5C63",
">	c #E45E65",
",	c #E35E65",
"'	c #E6676E",
")	c #E5676D",
"!	c #DA5C62",
"~	c #3E383E",
"{	c #FEFCFC",
"]	c #F4C0C3",
"^	c #E45F66",
"/	c #F4BDC0",
"(	c #FFFEFE",
"_	c #8B4950",
":	c #C3575D",
"<	c #F2AFB3",
"[	c #FFFFFF",
"}	c #F5C2C5",
"|	c #F5C2C4",
"1	c #F3B4B8",
"2	c #DB5C63",
"3	c #F2B3B6",
"4	c #F3B6BA",
"5	c #E46067",
"6	c #F5C3C6",
"7	c #F6C9CB",
"8	c #E46167",
"9	c #F5C0C3",
"0	c #F2AFB2",
"a	c #F5C1C4",
"b	c #FDF1F2",
"c	c #F1AAAE",
"d	c #8A4A50",
"e	c #DA5B62",
"f	c #3D373E",
"g	c #694148",
"h	c #C0565D",
"........................",
"++++++++++++++++++++++++",
"@@@@@@@@@@@@@@@@@@@@@@@@",
"@@@@@@@@@@@@@@@@@@@@@@@@",
"@@@@@@@@@@@@@@@@@@@@@@@@",
"@@@@@@@@#$%&&*=#@@@@@@@@",
"@@@@@@@-;>>>>>>;-@@@@@@@",
"@@@@@@-,>>>>>>>>,-@@@@@@",
"@@@@@#;>>'>>>>)>>!~@@@@@",
"@@@@@$>>>{]^^/(>>>_@@@@@",
"@@@@@:>>><[}|[1>>>*@@@@@",
"@@@@@2>>>>3[[4>>>>;@@@@@",
"@@@@@;>>>56[[78>>>!@@@@@",
"@@@@@%>>>9[00[a>>>*@@@@@",
"@@@@@=>>>bc>>cb>>>d@@@@@",
"@@@@@#;>>>>>>>>>>ef@@@@@",
"@@@@@@-,>>>>>>>>,g@@@@@@",
"@@@@@@@-!>>>>>>eg@@@@@@@",
"@@@@@@@@~_h22hdf@@@@@@@@",
"@@@@@@@@@@@@@@@@@@@@@@@@",
"@@@@@@@@@@@@@@@@@@@@@@@@",
"@@@@@@@@@@@@@@@@@@@@@@@@",
"@@@@@@@@@@@@@@@@@@@@@@@@",
"@@@@@@@@@@@@@@@@@@@@@@@@"};
