/* XPM */
static char * close_pressed_xpm[] = {
"24 24 40 1",
" 	c None",
".	c #21252B",
"+	c #353B48",
"@	c #2F343F",
"#	c #3A343F",
"$	c #783640",
"%	c #A33640",
"&	c #B73740",
"*	c #A13741",
"=	c #78363F",
"-	c #5E3540",
";	c #B63740",
">	c #BE3841",
",	c #5E343F",
"'	c #BD3740",
")	c #B53740",
"!	c #3B343E",
"~	c #32333E",
"{	c #67353F",
"]	c #BC3740",
"^	c #683540",
"/	c #2F333F",
"(	c #773640",
"_	c #A33740",
":	c #75363F",
"<	c #65353F",
"[	c #653540",
"}	c #71353F",
"|	c #72363F",
"1	c #6F353F",
"2	c #64353F",
"3	c #5F353F",
"4	c #BB3740",
"5	c #66353F",
"6	c #763640",
"7	c #7A3540",
"8	c #773540",
"9	c #3A333F",
"0	c #5C353F",
"a	c #A13740",
"........................",
"++++++++++++++++++++++++",
"@@@@@@@@@@@@@@@@@@@@@@@@",
"@@@@@@@@@@@@@@@@@@@@@@@@",
"@@@@@@@@@@@@@@@@@@@@@@@@",
"@@@@@@@@#$%&&*=#@@@@@@@@",
"@@@@@@@-;>>>>>>;,@@@@@@@",
"@@@@@@-'>>>>>>>>',@@@@@@",
"@@@@@#;>>)>>>>;>>;!@@@@@",
"@@@@@$>>>~{]]^/>>>(@@@@@",
"@@@@@_>>>:@<[@}>>>*@@@@@",
"@@@@@;>>>>|@@1>>>>;@@@@@",
"@@@@@;>>>]2@@34>>>;@@@@@",
"@@@@@%>>>5@66@<>>>*@@@@@",
"@@@@@=>>>#7>>7#>>>8@@@@@",
"@@@@@#;>>>>>>>>>>)9@@@@@",
"@@@@@@,'>>>>>>>>'0@@@@@@",
"@@@@@@@,;>>>>>>)0@@@@@@@",
"@@@@@@@@!(a&&a89@@@@@@@@",
"@@@@@@@@@@@@@@@@@@@@@@@@",
"@@@@@@@@@@@@@@@@@@@@@@@@",
"@@@@@@@@@@@@@@@@@@@@@@@@",
"@@@@@@@@@@@@@@@@@@@@@@@@",
"@@@@@@@@@@@@@@@@@@@@@@@@"};
