/* XPM */
static char * close_inactive_xpm[] = {
"24 24 42 1",
" 	c None",
".	c #111215",
"+	c #353B44",
"@	c #2F343B",
"#	c #2D3139",
"$	c #262B31",
"%	c #22272B",
"&	c #1F2428",
"*	c #2A2E34",
"=	c #20242A",
"-	c #24282F",
";	c #282D33",
">	c #2A2E35",
",	c #21252B",
"'	c #292E34",
")	c #282C33",
"!	c #21252A",
"~	c #2D3237",
"{	c #2D3239",
"]	c #656C76",
"^	c #4F545D",
"/	c #4D535B",
"(	c #676D76",
"_	c #22262B",
":	c #282C32",
"<	c #494E56",
"[	c #4F565D",
"}	c #4F555D",
"|	c #4A4F57",
"1	c #282D32",
"2	c #1F2429",
"3	c #4B5059",
"4	c #202429",
"5	c #51565D",
"6	c #525860",
"7	c #282D34",
"8	c #202529",
"9	c #484E55",
"0	c #626770",
"a	c #454C54",
"b	c #272B32",
"c	c #22272C",
"........................",
"++++++++++++++++++++++++",
"@@@@@@@@@@@@@@@@@@@@@@@@",
"@@@@@@@@@@@@@@@@@@@@@@@@",
"@@@@@@@@@@@@@@@@@@@@@@@@",
"@@@@@@@@#$%&&%$#@@@@@@@@",
"@@@@@@@*=-;;;;-=>@@@@@@@",
"@@@@@@*,;'''''')!>@@@@@@",
"@@@@@#=;'~''''~')={@@@@@",
"@@@@@$-'']^**/(''-$@@@@@",
"@@@@@_:''<([}(|''1%@@@@@",
"@@@@@2;'''|((3''';4@@@@@",
"@@@@@4;''*5((6*''78@@@@@",
"@@@@@%:''}(99(}''1%@@@@@",
"@@@@@$-''0a''a0''-b@@@@@",
"@@@@@#=)'''''''')8{@@@@@",
"@@@@@@>,)'''''')!>@@@@@@",
"@@@@@@@>=-1;;1-8>@@@@@@@",
"@@@@@@@@{$c22cb{@@@@@@@@",
"@@@@@@@@@@@@@@@@@@@@@@@@",
"@@@@@@@@@@@@@@@@@@@@@@@@",
"@@@@@@@@@@@@@@@@@@@@@@@@",
"@@@@@@@@@@@@@@@@@@@@@@@@",
"@@@@@@@@@@@@@@@@@@@@@@@@"};
