/* XPM */
static char * close_inactive_xpm[] = {
"24 24 34 1",
" 	c None",
".	c #21252B",
"+	c #353B48",
"@	c #2F343F",
"#	c #333843",
"$	c #4B5059",
"%	c #5B5F69",
"&	c #646770",
"*	c #5C6069",
"=	c #4B505A",
"-	c #414650",
";	c #636771",
">	c #666A73",
",	c #404650",
"'	c #636770",
")	c #303540",
"!	c #444953",
"~	c #666A72",
"{	c #454A54",
"]	c #2E333F",
"^	c #4B4F5A",
"/	c #494E58",
"(	c #444852",
"_	c #434953",
":	c #484D57",
"<	c #474C56",
"[	c #656972",
"}	c #444853",
"|	c #4A4F59",
"1	c #4C515A",
"2	c #4B4F59",
"3	c #40454F",
"4	c #5C5F68",
"5	c #636871",
"........................",
"++++++++++++++++++++++++",
"@@@@@@@@@@@@@@@@@@@@@@@@",
"@@@@@@@@@@@@@@@@@@@@@@@@",
"@@@@@@@@@@@@@@@@@@@@@@@@",
"@@@@@@@@#$%&&*=#@@@@@@@@",
"@@@@@@@-;>>>>>>;,@@@@@@@",
"@@@@@@->>>>>>>>>>,@@@@@@",
"@@@@@#;>>'>>>>'>>'#@@@@@",
"@@@@@$>>>)!~~{]>>>^@@@@@",
"@@@@@%>>>/@(_@:>>>*@@@@@",
"@@@@@;>>>>/@@<>>>>;@@@@@",
"@@@@@;>>>[(@@-[>>>'@@@@@",
"@@@@@%>>>}@||@_>>>*@@@@@",
"@@@@@=>>>#1>>1#>>>2@@@@@",
"@@@@@#;>>>>>>>>>>'#@@@@@",
"@@@@@@,>>>>>>>>>>3@@@@@@",
"@@@@@@@,'>>>>>>'3@@@@@@@",
"@@@@@@@@#^45542#@@@@@@@@",
"@@@@@@@@@@@@@@@@@@@@@@@@",
"@@@@@@@@@@@@@@@@@@@@@@@@",
"@@@@@@@@@@@@@@@@@@@@@@@@",
"@@@@@@@@@@@@@@@@@@@@@@@@",
"@@@@@@@@@@@@@@@@@@@@@@@@"};
