/* XPM */
static char * hide_prelight_xpm[] = {
"24 24 37 1",
" 	c None",
".	c #111215",
"+	c #353B44",
"@	c #2F343B",
"#	c #313C48",
"$	c #406691",
"%	c #4C81C1",
"&	c #508FDA",
"*	c #4B82C2",
"=	c #406590",
"-	c #3A5372",
";	c #4F8CD4",
">	c #416898",
",	c #324459",
"'	c #282E38",
")	c #416998",
"!	c #3A5371",
"~	c #4D88CF",
"{	c #2F3E54",
"]	c #262A31",
"^	c #2F4054",
"/	c #323B49",
"(	c #416999",
"_	c #406490",
":	c #4B82C3",
"<	c #304258",
"[	c #324359",
"}	c #282F3A",
"|	c #AFB8C5",
"1	c #508FD8",
"2	c #28313B",
"3	c #4F8ED8",
"4	c #40648E",
"5	c #313B48",
"6	c #395371",
"7	c #32445A",
"8	c #4B81C1",
"........................",
"++++++++++++++++++++++++",
"@@@@@@@@@@@@@@@@@@@@@@@@",
"@@@@@@@@@@@@@@@@@@@@@@@@",
"@@@@@@@@@@@@@@@@@@@@@@@@",
"@@@@@@@@#$%&&*=#@@@@@@@@",
"@@@@@@@-;>,'',);!@@@@@@@",
"@@@@@@-~{]]]]]]^~!@@@@@@",
"@@@@@#;{]]]]]]]]^;/@@@@@",
"@@@@@$>]]]]]]]]]](_@@@@@",
"@@@@@:<]]]]]]]]]][*@@@@@",
"@@@@@&}]]||||||]]}1@@@@@",
"@@@@@1}]]||||||]]23@@@@@",
"@@@@@%<]]]]]]]]]][*@@@@@",
"@@@@@=)]]]]]]]]]](4@@@@@",
"@@@@@#;^]]]]]]]]^;5@@@@@",
"@@@@@@!~^]]]]]]^~6@@@@@@",
"@@@@@@@!;([}}7(;6@@@@@@@",
"@@@@@@@@/_8&&845@@@@@@@@",
"@@@@@@@@@@@@@@@@@@@@@@@@",
"@@@@@@@@@@@@@@@@@@@@@@@@",
"@@@@@@@@@@@@@@@@@@@@@@@@",
"@@@@@@@@@@@@@@@@@@@@@@@@",
"@@@@@@@@@@@@@@@@@@@@@@@@"};
