/* XPM */
static char * hide_active_xpm[] = {
"24 24 29 1",
" 	c None",
".	c #111215",
"+	c #353B44",
"@	c #2F343B",
"#	c #2D3239",
"$	c #23272D",
"%	c #1D2125",
"&	c #1A1D22",
"*	c #1D2126",
"=	c #23282D",
"-	c #282C32",
";	c #1B1E23",
">	c #21242A",
",	c #272A30",
"'	c #272B30",
")	c #282D32",
"!	c #1A1E24",
"~	c #252A30",
"{	c #272C32",
"]	c #262A30",
"^	c #21252A",
"/	c #1E2125",
"(	c #1A1E22",
"_	c #272B31",
":	c #939CA8",
"<	c #1B1E22",
"[	c #23282E",
"}	c #292D33",
"|	c #262A2F",
"........................",
"++++++++++++++++++++++++",
"@@@@@@@@@@@@@@@@@@@@@@@@",
"@@@@@@@@@@@@@@@@@@@@@@@@",
"@@@@@@@@@@@@@@@@@@@@@@@@",
"@@@@@@@@#$%&&*=#@@@@@@@@",
"@@@@@@@-;>,'',>;)@@@@@@@",
"@@@@@@-!~{{{{{{];)@@@@@@",
"@@@@@#;~{{{{{{{{];#@@@@@",
"@@@@@$>{{{{{{{{{{^=@@@@@",
"@@@@@/]{{{{{{{{{{,*@@@@@",
"@@@@@(_{{::::::{{_(@@@@@",
"@@@@@(_{{::::::{{_<@@@@@",
"@@@@@%]{{{{{{{{{{,*@@@@@",
"@@@@@=>{{{{{{{{{{^[@@@@@",
"@@@@@#;]{{{{{{{{]<#@@@@@",
"@@@@@@)!]{{{{{{];}@@@@@@",
"@@@@@@@);^,__|^<}@@@@@@@",
"@@@@@@@@#=*((*[#@@@@@@@@",
"@@@@@@@@@@@@@@@@@@@@@@@@",
"@@@@@@@@@@@@@@@@@@@@@@@@",
"@@@@@@@@@@@@@@@@@@@@@@@@",
"@@@@@@@@@@@@@@@@@@@@@@@@",
"@@@@@@@@@@@@@@@@@@@@@@@@"};
