/* XPM */
static char * hide_pressed_xpm[] = {
"24 24 24 1",
" 	c None",
".	c #111215",
"+	c #353B44",
"@	c #2F343B",
"#	c #313C48",
"$	c #406691",
"%	c #4C81C1",
"&	c #508FDA",
"*	c #4B82C2",
"=	c #406590",
"-	c #3A5372",
";	c #508FD8",
">	c #5294E2",
",	c #3A5371",
"'	c #5193E1",
")	c #4F8ED8",
"!	c #323B49",
"~	c #406490",
"{	c #4B82C3",
"]	c #FFFFFF",
"^	c #40648E",
"/	c #313B48",
"(	c #395371",
"_	c #4B81C1",
"........................",
"++++++++++++++++++++++++",
"@@@@@@@@@@@@@@@@@@@@@@@@",
"@@@@@@@@@@@@@@@@@@@@@@@@",
"@@@@@@@@@@@@@@@@@@@@@@@@",
"@@@@@@@@#$%&&*=#@@@@@@@@",
"@@@@@@@-;>>>>>>;,@@@@@@@",
"@@@@@@-'>>>>>>>>',@@@@@@",
"@@@@@#;>>>>>>>>>>)!@@@@@",
"@@@@@$>>>>>>>>>>>>~@@@@@",
"@@@@@{>>>>>>>>>>>>*@@@@@",
"@@@@@&>>>]]]]]]>>>;@@@@@",
"@@@@@;>>>]]]]]]>>>)@@@@@",
"@@@@@%>>>>>>>>>>>>*@@@@@",
"@@@@@=>>>>>>>>>>>>^@@@@@",
"@@@@@#;>>>>>>>>>>)/@@@@@",
"@@@@@@,'>>>>>>>>'(@@@@@@",
"@@@@@@@,)>>>>>>)(@@@@@@@",
"@@@@@@@@!~_&&_^/@@@@@@@@",
"@@@@@@@@@@@@@@@@@@@@@@@@",
"@@@@@@@@@@@@@@@@@@@@@@@@",
"@@@@@@@@@@@@@@@@@@@@@@@@",
"@@@@@@@@@@@@@@@@@@@@@@@@",
"@@@@@@@@@@@@@@@@@@@@@@@@"};
