/* XPM */
static char * hide_inactive_xpm[] = {
"24 24 28 1",
" 	c None",
".	c #111215",
"+	c #353B44",
"@	c #2F343B",
"#	c #2D3139",
"$	c #262B31",
"%	c #22272B",
"&	c #1F2428",
"*	c #2A2E34",
"=	c #20242A",
"-	c #24282F",
";	c #282D33",
">	c #2A2E35",
",	c #21252B",
"'	c #292E34",
")	c #282C33",
"!	c #21252A",
"~	c #2D3239",
"{	c #22262B",
"]	c #282C32",
"^	c #282D32",
"/	c #1F2429",
"(	c #676D76",
"_	c #202429",
":	c #282D34",
"<	c #202529",
"[	c #272B32",
"}	c #22272C",
"........................",
"++++++++++++++++++++++++",
"@@@@@@@@@@@@@@@@@@@@@@@@",
"@@@@@@@@@@@@@@@@@@@@@@@@",
"@@@@@@@@@@@@@@@@@@@@@@@@",
"@@@@@@@@#$%&&%$#@@@@@@@@",
"@@@@@@@*=-;;;;-=>@@@@@@@",
"@@@@@@*,;'''''')!>@@@@@@",
"@@@@@#=;'''''''')=~@@@@@",
"@@@@@$-''''''''''-$@@@@@",
"@@@@@{]''''''''''^%@@@@@",
"@@@@@/;''(((((('';_@@@@@",
"@@@@@_;''(((((('':<@@@@@",
"@@@@@%]''''''''''^%@@@@@",
"@@@@@$-''''''''''-[@@@@@",
"@@@@@#=)'''''''')<~@@@@@",
"@@@@@@>,)'''''')!>@@@@@@",
"@@@@@@@>=-^;;^-<>@@@@@@@",
"@@@@@@@@~$}//}[~@@@@@@@@",
"@@@@@@@@@@@@@@@@@@@@@@@@",
"@@@@@@@@@@@@@@@@@@@@@@@@",
"@@@@@@@@@@@@@@@@@@@@@@@@",
"@@@@@@@@@@@@@@@@@@@@@@@@",
"@@@@@@@@@@@@@@@@@@@@@@@@"};
