/* XPM */
static char * maximize_active_xpm[] = {
"24 24 38 1",
" 	c None",
".	c #111215",
"+	c #353B44",
"@	c #2F343B",
"#	c #2D3239",
"$	c #23272D",
"%	c #1D2125",
"&	c #1A1D22",
"*	c #1D2126",
"=	c #23282D",
"-	c #282C32",
";	c #1B1E23",
">	c #21242A",
",	c #272A30",
"'	c #272B30",
")	c #282D32",
"!	c #1A1E24",
"~	c #252A30",
"{	c #272C32",
"]	c #262A30",
"^	c #282E34",
"/	c #717882",
"(	c #939CA8",
"_	c #7F8690",
":	c #21252A",
"<	c #1E2125",
"[	c #1A1E22",
"}	c #272B31",
"|	c #282D34",
"1	c #747B85",
"2	c #2A2F35",
"3	c #292E34",
"4	c #6E757E",
"5	c #1B1E22",
"6	c #7F8892",
"7	c #23282E",
"8	c #292D33",
"9	c #262A2F",
"........................",
"++++++++++++++++++++++++",
"@@@@@@@@@@@@@@@@@@@@@@@@",
"@@@@@@@@@@@@@@@@@@@@@@@@",
"@@@@@@@@@@@@@@@@@@@@@@@@",
"@@@@@@@@#$%&&*=#@@@@@@@@",
"@@@@@@@-;>,'',>;)@@@@@@@",
"@@@@@@-!~{{{{{{];)@@@@@@",
"@@@@@#;~{{{{{{{{];#@@@@@",
"@@@@@$>{{{^/((_{{:=@@@@@",
"@@@@@<]{{^{^/(({{,*@@@@@",
"@@@@@[}{|12{34({{}[@@@@@",
"@@@@@[}{|(12{34{{}5@@@@@",
"@@@@@%]{|((/^{^{{,*@@@@@",
"@@@@@=>{{6((/^{{{:7@@@@@",
"@@@@@#;]{{{{{{{{]5#@@@@@",
"@@@@@@)!]{{{{{{];8@@@@@@",
"@@@@@@@);:,}}9:58@@@@@@@",
"@@@@@@@@#=*[[*7#@@@@@@@@",
"@@@@@@@@@@@@@@@@@@@@@@@@",
"@@@@@@@@@@@@@@@@@@@@@@@@",
"@@@@@@@@@@@@@@@@@@@@@@@@",
"@@@@@@@@@@@@@@@@@@@@@@@@",
"@@@@@@@@@@@@@@@@@@@@@@@@"};
