/* XPM */
static char * maximize_prelight_xpm[] = {
"24 24 31 1",
" 	c None",
".	c #21252B",
"+	c #353B48",
"@	c #2F343F",
"#	c #2E333E",
"$	c #2A2E37",
"%	c #262B34",
"&	c #252932",
"*	c #2A2E38",
"=	c #2C303A",
"-	c #262A34",
";	c #2F3641",
">	c #3D4250",
",	c #424959",
"'	c #282B35",
")	c #3D4353",
"!	c #444B5B",
"~	c #3D4252",
"{	c #474D5E",
"]	c #9B9FA6",
"^	c #C4C7CC",
"/	c #ABAEB5",
"(	c #262B33",
"_	c #3B4250",
":	c #464D5D",
"<	c #9EA2AB",
"[	c #484E5E",
"}	c #454C5B",
"|	c #979BA6",
"1	c #252933",
"2	c #ACAFB7",
"........................",
"++++++++++++++++++++++++",
"@@@@@@@@@@@@@@@@@@@@@@@@",
"@@@@@@@@@@@@@@@@@@@@@@@@",
"@@@@@@@@@@@@@@@@@@@@@@@@",
"@@@@@@@@#$%&&%*#@@@@@@@@",
"@@@@@@@=-;>,,>;-=@@@@@@@",
"@@@@@@=')!!!!!!~'=@@@@@@",
"@@@@@#-)!!!!!!!!~-#@@@@@",
"@@@@@$;!!!{]^^/!!;*@@@@@",
"@@@@@(_!!{!{]^^!!_%@@@@@",
"@@@@@&,!:<[!}|^!!,1@@@@@",
"@@@@@1,!:^<[!}|!!,1@@@@@",
"@@@@@%_!:^^]{!{!!_%@@@@@",
"@@@@@*;!!2^^]{!!!;*@@@@@",
"@@@@@#-~!!!!!!!!~%#@@@@@",
"@@@@@@='~!!!!!!~'=@@@@@@",
"@@@@@@@=-;_,,_;%=@@@@@@@",
"@@@@@@@@#*%&&%*#@@@@@@@@",
"@@@@@@@@@@@@@@@@@@@@@@@@",
"@@@@@@@@@@@@@@@@@@@@@@@@",
"@@@@@@@@@@@@@@@@@@@@@@@@",
"@@@@@@@@@@@@@@@@@@@@@@@@",
"@@@@@@@@@@@@@@@@@@@@@@@@"};
