/* XPM */
static char * maximize_active_xpm[] = {
"24 24 12 1",
" 	c None",
".	c #21252B",
"+	c #353B48",
"@	c #2F343F",
"#	c #313641",
"$	c #70757E",
"%	c #8F939A",
"&	c #7D8089",
"*	c #73777F",
"=	c #323641",
"-	c #6E717B",
";	c #7E818A",
"........................",
"++++++++++++++++++++++++",
"@@@@@@@@@@@@@@@@@@@@@@@@",
"@@@@@@@@@@@@@@@@@@@@@@@@",
"@@@@@@@@@@@@@@@@@@@@@@@@",
"@@@@@@@@@@@@@@@@@@@@@@@@",
"@@@@@@@@@@@@@@@@@@@@@@@@",
"@@@@@@@@@@@@@@@@@@@@@@@@",
"@@@@@@@@@@@@@@@@@@@@@@@@",
"@@@@@@@@@@#$%%&@@@@@@@@@",
"@@@@@@@@@#@#$%%@@@@@@@@@",
"@@@@@@@@@*=@@-%@@@@@@@@@",
"@@@@@@@@@%*=@@-@@@@@@@@@",
"@@@@@@@@@%%$#@#@@@@@@@@@",
"@@@@@@@@@;%%$#@@@@@@@@@@",
"@@@@@@@@@@@@@@@@@@@@@@@@",
"@@@@@@@@@@@@@@@@@@@@@@@@",
"@@@@@@@@@@@@@@@@@@@@@@@@",
"@@@@@@@@@@@@@@@@@@@@@@@@",
"@@@@@@@@@@@@@@@@@@@@@@@@",
"@@@@@@@@@@@@@@@@@@@@@@@@",
"@@@@@@@@@@@@@@@@@@@@@@@@",
"@@@@@@@@@@@@@@@@@@@@@@@@",
"@@@@@@@@@@@@@@@@@@@@@@@@"};
