/* XPM */
static char * maximize_prelight_xpm[] = {
"24 24 46 1",
" 	c None",
".	c #111215",
"+	c #353B44",
"@	c #2F343B",
"#	c #313C48",
"$	c #406691",
"%	c #4C81C1",
"&	c #508FDA",
"*	c #4B82C2",
"=	c #406590",
"-	c #3A5372",
";	c #4F8CD4",
">	c #416898",
",	c #324459",
"'	c #282E38",
")	c #416998",
"!	c #3A5371",
"~	c #4D88CF",
"{	c #2F3E54",
"]	c #262A31",
"^	c #2F4054",
"/	c #323B49",
"(	c #282D33",
"_	c #838A96",
":	c #AFB8C5",
"<	c #949BA6",
"[	c #416999",
"}	c #406490",
"|	c #4B82C3",
"1	c #304258",
"2	c #324359",
"3	c #282F3A",
"4	c #272B32",
"5	c #878E99",
"6	c #2A2E34",
"7	c #282C31",
"8	c #818691",
"9	c #508FD8",
"0	c #28313B",
"a	c #4F8ED8",
"b	c #959DA9",
"c	c #40648E",
"d	c #313B48",
"e	c #395371",
"f	c #32445A",
"g	c #4B81C1",
"........................",
"++++++++++++++++++++++++",
"@@@@@@@@@@@@@@@@@@@@@@@@",
"@@@@@@@@@@@@@@@@@@@@@@@@",
"@@@@@@@@@@@@@@@@@@@@@@@@",
"@@@@@@@@#$%&&*=#@@@@@@@@",
"@@@@@@@-;>,'',);!@@@@@@@",
"@@@@@@-~{]]]]]]^~!@@@@@@",
"@@@@@#;{]]]]]]]]^;/@@@@@",
"@@@@@$>]]](_::<]][}@@@@@",
"@@@@@|1]](](_::]]2*@@@@@",
"@@@@@&3]456]78:]]39@@@@@",
"@@@@@93]4:56]78]]0a@@@@@",
"@@@@@%1]4::_(](]]2*@@@@@",
"@@@@@=)]]b::_(]]][c@@@@@",
"@@@@@#;^]]]]]]]]^;d@@@@@",
"@@@@@@!~^]]]]]]^~e@@@@@@",
"@@@@@@@!;[233f[;e@@@@@@@",
"@@@@@@@@/}g&&gcd@@@@@@@@",
"@@@@@@@@@@@@@@@@@@@@@@@@",
"@@@@@@@@@@@@@@@@@@@@@@@@",
"@@@@@@@@@@@@@@@@@@@@@@@@",
"@@@@@@@@@@@@@@@@@@@@@@@@",
"@@@@@@@@@@@@@@@@@@@@@@@@"};
