/* XPM */
static char * maximize_inactive_xpm[] = {
"24 24 12 1",
" 	c None",
".	c #21252B",
"+	c #353B48",
"@	c #2F343F",
"#	c #303540",
"$	c #545862",
"%	c #666A73",
"&	c #5C5F68",
"*	c #2E333F",
"=	c #555A64",
"-	c #525761",
";	c #5B5F69",
"........................",
"++++++++++++++++++++++++",
"@@@@@@@@@@@@@@@@@@@@@@@@",
"@@@@@@@@@@@@@@@@@@@@@@@@",
"@@@@@@@@@@@@@@@@@@@@@@@@",
"@@@@@@@@@@@@@@@@@@@@@@@@",
"@@@@@@@@@@@@@@@@@@@@@@@@",
"@@@@@@@@@@@@@@@@@@@@@@@@",
"@@@@@@@@@@@@@@@@@@@@@@@@",
"@@@@@@@@@@#$%%&@@@@@@@@@",
"@@@@@@@@@#@#$%%@@@@@@@@@",
"@@@@@@@@*=#@@-%@@@@@@@@@",
"@@@@@@@@*%=#@@-@@@@@@@@@",
"@@@@@@@@*%%$#@#@@@@@@@@@",
"@@@@@@@@@;%%$#@@@@@@@@@@",
"@@@@@@@@@@@@@@@@@@@@@@@@",
"@@@@@@@@@@@@@@@@@@@@@@@@",
"@@@@@@@@@@@@@@@@@@@@@@@@",
"@@@@@@@@@@@@@@@@@@@@@@@@",
"@@@@@@@@@@@@@@@@@@@@@@@@",
"@@@@@@@@@@@@@@@@@@@@@@@@",
"@@@@@@@@@@@@@@@@@@@@@@@@",
"@@@@@@@@@@@@@@@@@@@@@@@@",
"@@@@@@@@@@@@@@@@@@@@@@@@"};
