/* XPM */
static char * maximize_pressed_xpm[] = {
"28 28 34 1",
" 	c None",
".	c #21252B",
"+	c #353B48",
"@	c #2F343F",
"#	c #2F343B",
"$	c #313C48",
"%	c #406691",
"&	c #4C81C1",
"*	c #508FDA",
"=	c #4B82C2",
"-	c #406590",
";	c #3A5372",
">	c #508FD8",
",	c #5294E2",
"'	c #3A5371",
")	c #5193E1",
"!	c #4F8ED8",
"~	c #323B49",
"{	c #5596E3",
"]	c #C7DDF6",
"^	c #FFFFFF",
"/	c #DDEAF9",
"(	c #406490",
"_	c #4B82C3",
":	c #5395E2",
"<	c #CCE0F6",
"[	c #5797E3",
"}	c #5495E2",
"|	c #C3DAF5",
"1	c #DFEBFA",
"2	c #40648E",
"3	c #313B48",
"4	c #395371",
"5	c #4B81C1",
"............................",
"++++++++++++++++++++++++++++",
"@@@@@@@@@@@@@@@@@@@@@@@@@@@@",
"@@@@@@@@@@@@@@@@@@@@@@@@@@@@",
"@@@@@@@@@@@@@@@@@###@@@@@@@@",
"@@@@@@@@##################@@",
"@@########################@@",
"@@########$%&**=-$########@@",
"@@#######;>,,,,,,>'#######@@",
"@@######;),,,,,,,,)'######@@",
"@@#####$>,,,,,,,,,,!~#####@@",
"@@#####%,,,,{]^^/,,,(#####@@",
"@@#####_,,,{,{]^^,,,=#####@@",
"@@#####*,,:<[,}|^,,,>#####@@",
"@@#####>,,:^<[,}|,,,!#####@@",
"@@#####&,,:^^]{,{,,,=#####@@",
"@@#####-,,,1^^]{,,,,2#####@@",
"@@#####$>,,,,,,,,,,!3#####@@",
"@@######'),,,,,,,,)4######@@",
"@@#######'!,,,,,,!4#######@@",
"@@########~(5**523########@@",
"@@########################@@",
"@@########################@@",
"@@########################@@",
"@@########################@@",
"@@########################@@",
"@@@@@@@@@@@@@@@@@@@@@@@@@@@@",
"@@@@@@@@@@@@@@@@@@@@@@@@@@@@"};
