/* XPM */
static char * top_right_active_shaded_xpm[] = {
"5 24 4 1",
" 	c None",
".	c #111215",
"+	c #353B44",
"@	c #2F343B",
".... ",
"++++.",
"@@@@.",
"@@@@.",
"@@@@.",
"@@@@.",
"@@@@.",
"@@@@.",
"@@@@.",
"@@@@.",
"@@@@.",
"@@@@.",
"@@@@.",
"@@@@.",
"@@@@.",
"@@@@.",
"@@@@.",
"@@@@.",
"@@@@.",
"@@@@.",
"@@@@.",
"@@@@.",
"@@@@.",
"@@@@."};
