/* XPM */
static char * close_inactive_xpm[] = {
"28 28 34 1",
" 	c None",
".	c #EEEFF1",
"+	c #E7E8EB",
"@	c #E2E3E6",
"#	c #CCCFD3",
"$	c #BFC1C8",
"%	c #B8BBC1",
"&	c #CDCFD4",
"*	c #D6D8DC",
"=	c #B8BBC2",
"-	c #B5B8C0",
";	c #B5B8BE",
">	c #BBBDC3",
",	c #BABCC3",
"'	c #B8BAC1",
")	c #E3E4E7",
"!	c #DFE1E4",
"~	c #B6B9C0",
"{	c #BEC1C7",
"]	c #DBDCDF",
"^	c #E1E2E6",
"/	c #DDDEE1",
"(	c #DCDEE1",
"_	c #DEDEE2",
":	c #E4E4E7",
"<	c #B7BAC0",
"[	c #E1E1E6",
"}	c #DADCDF",
"|	c #ECECEE",
"1	c #CED0D5",
"2	c #B9BBC2",
"3	c #D7D8DC",
"4	c #BFC2C9",
"5	c #B7BBC1",
"............................",
"++++++++++++++++++++++++++++",
"++++++++++++++++++++++++++++",
"++++++++++++++++++++++++++++",
"++++++++++++++++++++++++++++",
"++++++++++++++++++++++++++++",
"++++++++++++++++++++++++++++",
"++++++++++@#$%%$&@++++++++++",
"+++++++++*=------=*+++++++++",
"++++++++*;--------;*++++++++",
"+++++++@=-->----,--')+++++++",
"+++++++#---.!~~!.---&+++++++",
"+++++++{---].^^./---$+++++++",
"+++++++=----(.._----=+++++++",
"+++++++=---~^..:<---'+++++++",
"+++++++$---[.}}.^---$+++++++",
"+++++++&---|}--}|---1+++++++",
"+++++++@=----------2)+++++++",
"++++++++*;--------;3++++++++",
"+++++++++*'------23+++++++++",
"++++++++++)&45541)++++++++++",
"++++++++++++++++++++++++++++",
"++++++++++++++++++++++++++++",
"++++++++++++++++++++++++++++",
"++++++++++++++++++++++++++++",
"++++++++++++++++++++++++++++",
"++++++++++++++++++++++++++++",
"++++++++++++++++++++++++++++"};
