/* XPM */
static char * close_prelight_xpm[] = {
"28 28 43 1",
" 	c None",
".	c #EEEFF1",
"+	c #E7E8EB",
"@	c #E8DFE2",
"#	c #EEB2B6",
"$	c #F39399",
"%	c #F5848A",
"&	c #EEB2B7",
"*	c #ECC5C9",
"=	c #F5858B",
"-	c #F68086",
";	c #EBC5C9",
">	c #F58086",
",	c #F68A91",
"'	c #F58A8F",
")	c #F4858B",
"!	c #E7DFE2",
"~	c #F7F7F8",
"{	c #F4DADD",
"]	c #F58186",
"^	c #F4D8DB",
"/	c #F39398",
"(	c #F4CFD1",
"_	c #F7F8F9",
":	c #F4DCDD",
"<	c #F5DCDF",
"[	c #F5D3D5",
"}	c #F4D1D4",
"|	c #F4D4D7",
"1	c #F58288",
"2	c #F4DCDF",
"3	c #F4DFE1",
"4	c #F58388",
"5	c #F5DADD",
"6	c #F4CDD0",
"7	c #F5DCDD",
"8	c #F6F3F4",
"9	c #F4CCCE",
"0	c #EEB3B7",
"a	c #F6868B",
"b	c #E7DFE3",
"c	c #EBC6CA",
"d	c #F39499",
"............................",
"++++++++++++++++++++++++++++",
"++++++++++++++++++++++++++++",
"++++++++++++++++++++++++++++",
"++++++++++++++++++++++++++++",
"++++++++++++++++++++++++++++",
"++++++++++++++++++++++++++++",
"++++++++++@#$%%$&@++++++++++",
"+++++++++*=------=;+++++++++",
"++++++++*>-------->;++++++++",
"+++++++@=--,----'--)!+++++++",
"+++++++#---~{]]^~---&+++++++",
"+++++++/---(_:<_[---$+++++++",
"+++++++=----}__|----=+++++++",
"+++++++=---12__34---)+++++++",
"+++++++$---5_66_7---$+++++++",
"+++++++&---89--98---0+++++++",
"+++++++@=----------ab+++++++",
"++++++++;>-------->c++++++++",
"+++++++++;)------ac+++++++++",
"++++++++++!&d%%d0b++++++++++",
"++++++++++++++++++++++++++++",
"++++++++++++++++++++++++++++",
"++++++++++++++++++++++++++++",
"++++++++++++++++++++++++++++",
"++++++++++++++++++++++++++++",
"++++++++++++++++++++++++++++",
"++++++++++++++++++++++++++++"};
