/* XPM */
static char * close_pressed_xpm[] = {
"24 24 42 1",
" 	c None",
".	c #EEEFF1",
"+	c #E7E8EB",
"@	c #E8DADC",
"#	c #EB9196",
"$	c #ED5F65",
"%	c #EE474F",
"&	c #ED6067",
"*	c #EB9197",
"=	c #EAAFB4",
"-	c #EE4850",
";	c #EF4048",
">	c #E9B0B5",
",	c #EE4048",
"'	c #F04B53",
")	c #F04A52",
"!	c #E7D9DD",
"~	c #FFFBFB",
"{	c #F9B4B7",
"]	c #EF4149",
"^	c #F8B1B4",
"/	c #FFFDFE",
"(	c #EB9298",
"_	c #ED5E66",
":	c #F7A1A5",
"<	c #FFFFFF",
"[	c #F9B7BA",
"}	c #F9B6B9",
"|	c #F8A7AA",
"1	c #F7A4A8",
"2	c #F8A9AC",
"3	c #EF424A",
"4	c #F9B8BB",
"5	c #FABFC1",
"6	c #EF434B",
"7	c #F9B5B8",
"8	c #F7A0A4",
"9	c #FEEFEF",
"0	c #F79B9F",
"a	c #EE4951",
"b	c #E7DADE",
"c	c #E9B2B6",
"........................",
"++++++++++++++++++++++++",
"++++++++++++++++++++++++",
"++++++++++++++++++++++++",
"++++++++++++++++++++++++",
"++++++++@#$%%&*@++++++++",
"+++++++=-;;;;;;->+++++++",
"++++++=,;;;;;;;;,>++++++",
"+++++@-;;';;;;);;-!+++++",
"+++++#;;;~{]]^/;;;(+++++",
"+++++_;;;:<[}<|;;;&+++++",
"+++++%;;;;1<<2;;;;-+++++",
"+++++-;;;34<<56;;;-+++++",
"+++++$;;;7<88<};;;&+++++",
"+++++*;;;90;;09;;;(+++++",
"+++++@-;;;;;;;;;;ab+++++",
"++++++>,;;;;;;;;,c++++++",
"+++++++>-;;;;;;ac+++++++",
"++++++++!(&%%&(b++++++++",
"++++++++++++++++++++++++",
"++++++++++++++++++++++++",
"++++++++++++++++++++++++",
"++++++++++++++++++++++++",
"++++++++++++++++++++++++"};
