/* XPM */
static char * close_inactive_xpm[] = {
"24 24 33 1",
" 	c None",
".	c #EEEFF1",
"+	c #E7E8EB",
"@	c #E1E3E6",
"#	c #DFE0E4",
"$	c #DDDEE3",
"%	c #DEE0E4",
"&	c #E3E4E8",
"*	c #DCDEE3",
"=	c #F0F1F2",
"-	c #F5F5F7",
";	c #E8E8EB",
">	c #F0F1F3",
",	c #F6F6F7",
"'	c #F3F3F4",
")	c #BBBFC9",
"!	c #D2D5DB",
"~	c #D3D5DC",
"{	c #BBBEC8",
"]	c #F1F1F3",
"^	c #D7D9DF",
"/	c #BABEC7",
"(	c #D0D3D9",
"_	c #D2D4DB",
":	c #D5D7DD",
"<	c #F4F4F7",
"[	c #CDD1D8",
"}	c #F5F5F6",
"|	c #D7DADF",
"1	c #D0D4DB",
"2	c #BFC3CC",
"3	c #D9DADF",
"4	c #EFF0F2",
"........................",
"++++++++++++++++++++++++",
"++++++++++++++++++++++++",
"++++++++++++++++++++++++",
"++++++++++++++++++++++++",
"+++++++++@#$$%@+++++++++",
"+++++++&*+=--=;*&+++++++",
"++++++&%>,,,,,,>%&++++++",
"++++++*>,',,,,',>*++++++",
"+++++@+,,)!,,~{,,+@+++++",
"+++++#],,^/(_/:,,>%+++++",
"+++++$<,,,^//:,,,<$+++++",
"+++++$<,,,(//[,,,}$+++++",
"+++++#],,!/||/1,,>%+++++",
"+++++@;,,23,,32,,+@+++++",
"++++++*>,,,,,,,,>*++++++",
"++++++&%>,,,,,,>%&++++++",
"+++++++&*+><<4+*&+++++++",
"+++++++++@%$$%@+++++++++",
"++++++++++++++++++++++++",
"++++++++++++++++++++++++",
"++++++++++++++++++++++++",
"++++++++++++++++++++++++",
"++++++++++++++++++++++++"};
