/* XPM */
static char * close_pressed_xpm[] = {
"28 28 46 1",
" 	c None",
".	c #EEEFF1",
"+	c #E7E8EB",
"@	c #E8D7DB",
"#	c #EC888F",
"$	c #EF525A",
"%	c #F03740",
"&	c #EF535B",
"*	c #EC898F",
"=	c #EAAAAF",
"-	c #F03942",
";	c #F13039",
">	c #E9ABB0",
",	c #F03039",
"'	c #F23C45",
")	c #F23B44",
"!	c #F03A42",
"~	c #E7D8DC",
"{	c #FFFBFB",
"]	c #FAAEB1",
"^	c #F1323B",
"/	c #F9ABAE",
"(	c #FFFDFD",
"_	c #EC8990",
":	c #EF5158",
"<	c #F8999D",
"[	c #FFFFFF",
"}	c #FAB1B4",
"|	c #FAB0B4",
"1	c #F99FA3",
"2	c #F03841",
"3	c #F89DA1",
"4	c #F9A2A6",
"5	c #FAB2B5",
"6	c #FAB9BC",
"7	c #F1333C",
"8	c #FAAFB2",
"9	c #F8989C",
"0	c #FAAFB3",
"a	c #FEEDEE",
"b	c #F89297",
"c	c #EC8A90",
"d	c #F03A43",
"e	c #E7D9DC",
"f	c #E9ACB1",
"g	c #EF545B",
"............................",
"++++++++++++++++++++++++++++",
"++++++++++++++++++++++++++++",
"++++++++++++++++++++++++++++",
"++++++++++++++++++++++++++++",
"++++++++++++++++++++++++++++",
"++++++++++++++++++++++++++++",
"++++++++++@#$%%&*@++++++++++",
"+++++++++=-;;;;;;->+++++++++",
"++++++++=,;;;;;;;;,>++++++++",
"+++++++@-;;';;;;);;!~+++++++",
"+++++++#;;;{]^^/(;;;_+++++++",
"+++++++:;;;<[}|[1;;;&+++++++",
"+++++++2;;;;3[[4;;;;-+++++++",
"+++++++-;;;^5[[67;;;!+++++++",
"+++++++$;;;8[99[0;;;&+++++++",
"+++++++*;;;ab;;ba;;;c+++++++",
"+++++++@-;;;;;;;;;;de+++++++",
"++++++++>,;;;;;;;;,f++++++++",
"+++++++++>!;;;;;;df+++++++++",
"++++++++++~_g22gce++++++++++",
"++++++++++++++++++++++++++++",
"++++++++++++++++++++++++++++",
"++++++++++++++++++++++++++++",
"++++++++++++++++++++++++++++",
"++++++++++++++++++++++++++++",
"++++++++++++++++++++++++++++",
"++++++++++++++++++++++++++++"};
