/* XPM */
static char * close_active_xpm[] = {
"24 24 39 1",
" 	c None",
".	c #EEEFF1",
"+	c #E7E8EB",
"@	c #E8DCDF",
"#	c #EDA2A6",
"$	c #F1797F",
"%	c #F3656C",
"&	c #F17A80",
"*	c #EDA1A7",
"=	c #EBBABE",
"-	c #F3666D",
";	c #F46067",
">	c #EABBBF",
",	c #F36067",
"'	c #F36E74",
")	c #F36C73",
"!	c #F3676E",
"~	c #E7DCDF",
"{	c #F7F7F8",
"]	c #F4D3D6",
"^	c #F36269",
"/	c #F4D2D4",
"(	c #EDA2A8",
"_	c #F4C4C8",
":	c #F7F8F9",
"<	c #F4D5D8",
"[	c #F4C9CD",
"}	c #F4C8CB",
"|	c #F3CBCE",
"1	c #F4D9DC",
"2	c #F3646B",
"3	c #F3C3C7",
"4	c #F6F2F3",
"5	c #F3BFC3",
"6	c #EDA3A8",
"7	c #F3686E",
"8	c #E7DDE0",
"9	c #EABCC0",
"0	c #F4656D",
"........................",
"++++++++++++++++++++++++",
"++++++++++++++++++++++++",
"++++++++++++++++++++++++",
"++++++++++++++++++++++++",
"++++++++@#$%%&*@++++++++",
"+++++++=-;;;;;;->+++++++",
"++++++=,;;;;;;;;,>++++++",
"+++++@-;;';;;;);;!~+++++",
"+++++#;;;{]^^/{;;;(+++++",
"+++++$;;;_:<<:[;;;&+++++",
"+++++-;;;;}::|;;;;-+++++",
"+++++-;;;^<::12;;;!+++++",
"+++++$;;;]:33:<;;;&+++++",
"+++++*;;;45;;54;;;6+++++",
"+++++@-;;;;;;;;;;78+++++",
"++++++>,;;;;;;;;,9++++++",
"+++++++>!;;;;;;79+++++++",
"++++++++~(&00&68++++++++",
"++++++++++++++++++++++++",
"++++++++++++++++++++++++",
"++++++++++++++++++++++++",
"++++++++++++++++++++++++",
"++++++++++++++++++++++++"};
