/* XPM */
static char * hide_active_xpm[] = {
"24 24 21 1",
" 	c None",
".	c #EEEFF1",
"+	c #E7E8EB",
"@	c #E6E7EA",
"#	c #DFE1E5",
"$	c #DBDCE1",
"%	c #D9DBDF",
"&	c #DADCE1",
"*	c #E2E3E7",
"=	c #D9DBE1",
"-	c #E8E8EC",
";	c #F5F5F6",
">	c #FAFAFB",
",	c #DCDDE2",
"'	c #F5F6F6",
")	c #FCFCFD",
"!	c #E7E8EC",
"~	c #F5F5F7",
"{	c #FAFAFC",
"]	c #A7ACB9",
"^	c #F3F4F6",
"........................",
"++++++++++++++++++++++++",
"++++++++++++++++++++++++",
"++++++++++++++++++++++++",
"++++++++++++++++++++++++",
"++++++++@#$%%&#@++++++++",
"+++++++*=-;>>;-=*+++++++",
"++++++*,'))))))',*++++++",
"+++++@='))))))))'=@+++++",
"+++++#-))))))))))!#+++++",
"+++++$;))))))))))~&+++++",
"+++++%{))]]]]]])){%+++++",
"+++++%{))]]]]]])){%+++++",
"+++++$;))))))))))~&+++++",
"+++++#-))))))))))!#+++++",
"+++++@='))))))))'=@+++++",
"++++++*,'))))))',*++++++",
"+++++++*=!~{{^!=*+++++++",
"++++++++@#&%%&#@++++++++",
"++++++++++++++++++++++++",
"++++++++++++++++++++++++",
"++++++++++++++++++++++++",
"++++++++++++++++++++++++",
"++++++++++++++++++++++++"};
