/* XPM */
static char * hide_pressed_xpm[] = {
"28 28 24 1",
" 	c None",
".	c #EEEFF1",
"+	c #E7E8EB",
"@	c #DAE1E9",
"#	c #99BDE6",
"$	c #6EA3E2",
"%	c #5897E2",
"&	c #6EA4E4",
"*	c #9ABCE6",
"=	c #B5CBE7",
"-	c #5998E1",
";	c #5294E2",
">	c #B5CCE7",
",	c #5998E2",
"'	c #DAE0EA",
")	c #9BBCE6",
"!	c #6DA3E3",
"~	c #5997E2",
"{	c #FFFFFF",
"]	c #9BBDE5",
"^	c #5A98E2",
"/	c #DAE1EA",
"(	c #B6CDE8",
"_	c #6FA4E3",
"............................",
"++++++++++++++++++++++++++++",
"++++++++++++++++++++++++++++",
"++++++++++++++++++++++++++++",
"++++++++++++++++++++++++++++",
"++++++++++++++++++++++++++++",
"++++++++++++++++++++++++++++",
"++++++++++@#$%%&*@++++++++++",
"+++++++++=-;;;;;;->+++++++++",
"++++++++=;;;;;;;;;;>++++++++",
"+++++++@-;;;;;;;;;;,'+++++++",
"+++++++#;;;;;;;;;;;;)+++++++",
"+++++++!;;;;;;;;;;;;&+++++++",
"+++++++~;;;{{{{{{;;;-+++++++",
"+++++++-;;;{{{{{{;;;,+++++++",
"+++++++$;;;;;;;;;;;;&+++++++",
"+++++++*;;;;;;;;;;;;]+++++++",
"+++++++@-;;;;;;;;;;^/+++++++",
"++++++++>;;;;;;;;;;(++++++++",
"+++++++++>,;;;;;;^(+++++++++",
"++++++++++')_~~_]/++++++++++",
"++++++++++++++++++++++++++++",
"++++++++++++++++++++++++++++",
"++++++++++++++++++++++++++++",
"++++++++++++++++++++++++++++",
"++++++++++++++++++++++++++++",
"++++++++++++++++++++++++++++",
"++++++++++++++++++++++++++++"};
