/* XPM */
static char * hide_prelight_xpm[] = {
"24 24 37 1",
" 	c None",
".	c #EEEFF1",
"+	c #E7E8EB",
"@	c #DAE1E9",
"#	c #99BDE6",
"$	c #6EA3E2",
"%	c #5897E2",
"&	c #6EA4E4",
"*	c #9ABCE6",
"=	c #B5CBE7",
"-	c #5D9AE2",
";	c #96BBE9",
">	c #D4E2F4",
",	c #F4F6FB",
"'	c #95BBE8",
")	c #B5CCE7",
"!	c #629EE2",
"~	c #D9E6F5",
"{	c #FCFCFD",
"]	c #D8E6F5",
"^	c #639DE2",
"/	c #DAE0EA",
"(	c #94BBE8",
"_	c #9BBCE6",
":	c #6DA3E3",
"<	c #D3E1F4",
"[	c #5997E2",
"}	c #747C90",
"|	c #5998E1",
"1	c #F1F5FA",
"2	c #5998E2",
"3	c #9BBDE5",
"4	c #5E9AE2",
"5	c #DAE1EA",
"6	c #B6CDE8",
"7	c #D2E1F4",
"8	c #6FA4E3",
"........................",
"++++++++++++++++++++++++",
"++++++++++++++++++++++++",
"++++++++++++++++++++++++",
"++++++++++++++++++++++++",
"++++++++@#$%%&*@++++++++",
"+++++++=-;>,,>'-)+++++++",
"++++++=!~{{{{{{]^)++++++",
"+++++@-~{{{{{{{{]-/+++++",
"+++++#;{{{{{{{{{{(_+++++",
"+++++:>{{{{{{{{{{<&+++++",
"+++++[,{{}}}}}}{{,|+++++",
"+++++|,{{}}}}}}{{12+++++",
"+++++$>{{{{{{{{{{<&+++++",
"+++++*'{{{{{{{{{{(3+++++",
"+++++@-]{{{{{{{{]45+++++",
"++++++)!]{{{{{{]^6++++++",
"+++++++)-(<,,7(46+++++++",
"++++++++/_8[[835++++++++",
"++++++++++++++++++++++++",
"++++++++++++++++++++++++",
"++++++++++++++++++++++++",
"++++++++++++++++++++++++",
"++++++++++++++++++++++++"};
