/* XPM */
static char * maximize_inactive_xpm[] = {
"24 24 12 1",
" 	c None",
".	c #EEEFF1",
"+	c #E7E8EB",
"@	c #E6E7EA",
"#	c #C5C8CD",
"$	c #B5B8C0",
"%	c #BFC2C9",
"&	c #C4C7CC",
"*	c #E5E6EA",
"=	c #E6E7EB",
"-	c #C6C8CE",
";	c #BEC1C7",
"........................",
"++++++++++++++++++++++++",
"++++++++++++++++++++++++",
"++++++++++++++++++++++++",
"++++++++++++++++++++++++",
"++++++++++++++++++++++++",
"++++++++++++++++++++++++",
"++++++++++++++++++++++++",
"++++++++++++++++++++++++",
"++++++++++@#$$%+++++++++",
"+++++++++@+@#$$+++++++++",
"++++++++@&*+=-$+++++++++",
"++++++++@$&*+=-+++++++++",
"++++++++@$$#@+@+++++++++",
"+++++++++;$$#@++++++++++",
"++++++++++++++++++++++++",
"++++++++++++++++++++++++",
"++++++++++++++++++++++++",
"++++++++++++++++++++++++",
"++++++++++++++++++++++++",
"++++++++++++++++++++++++",
"++++++++++++++++++++++++",
"++++++++++++++++++++++++",
"++++++++++++++++++++++++"};
