/* XPM */
static char * maximize_active_xpm[] = {
"28 28 13 1",
" 	c None",
".	c #EEEFF1",
"+	c #E7E8EB",
"@	c #E5E6E9",
"#	c #ACAFB7",
"$	c #90949E",
"%	c #A0A5AD",
"&	c #E6E7EA",
"*	c #A9ADB4",
"=	c #E3E4E8",
"-	c #E6E7EB",
";	c #ADB0B8",
">	c #A0A4AB",
"............................",
"++++++++++++++++++++++++++++",
"++++++++++++++++++++++++++++",
"++++++++++++++++++++++++++++",
"++++++++++++++++++++++++++++",
"++++++++++++++++++++++++++++",
"++++++++++++++++++++++++++++",
"++++++++++++++++++++++++++++",
"++++++++++++++++++++++++++++",
"++++++++++++++++++++++++++++",
"++++++++++++++++++++++++++++",
"++++++++++++@#$$%+++++++++++",
"+++++++++++@+@#$$+++++++++++",
"++++++++++&*=+-;$+++++++++++",
"++++++++++&$*=+-;+++++++++++",
"++++++++++&$$#@+@+++++++++++",
"+++++++++++>$$#@++++++++++++",
"++++++++++++++++++++++++++++",
"++++++++++++++++++++++++++++",
"++++++++++++++++++++++++++++",
"++++++++++++++++++++++++++++",
"++++++++++++++++++++++++++++",
"++++++++++++++++++++++++++++",
"++++++++++++++++++++++++++++",
"++++++++++++++++++++++++++++",
"++++++++++++++++++++++++++++",
"++++++++++++++++++++++++++++",
"++++++++++++++++++++++++++++"};
