/* XPM */
static char * maximize_inactive_xpm[] = {
"24 24 25 1",
" 	c None",
".	c #EEEFF1",
"+	c #E7E8EB",
"@	c #E1E3E6",
"#	c #DFE0E4",
"$	c #DDDEE3",
"%	c #DEE0E4",
"&	c #E3E4E8",
"*	c #DCDEE3",
"=	c #F0F1F2",
"-	c #F5F5F7",
";	c #E8E8EB",
">	c #F0F1F3",
",	c #F6F6F7",
"'	c #F4F5F6",
")	c #CCD0D7",
"!	c #BABEC7",
"~	c #C6CAD1",
"{	c #F1F1F3",
"]	c #F4F4F7",
"^	c #CBCED5",
"/	c #CED2D8",
"(	c #F5F5F6",
"_	c #C6C9D1",
":	c #EFF0F2",
"........................",
"++++++++++++++++++++++++",
"++++++++++++++++++++++++",
"++++++++++++++++++++++++",
"++++++++++++++++++++++++",
"+++++++++@#$$%@+++++++++",
"+++++++&*+=--=;*&+++++++",
"++++++&%>,,,,,,>%&++++++",
"++++++*>,,,,,,,,>*++++++",
"+++++@+,,,')!!~,,+@+++++",
"+++++#{,,',')!!,,>%+++++",
"+++++$],,^',,/!,,]$+++++",
"+++++$],,!^',,/,,($+++++",
"+++++#{,,!!)',',,>%+++++",
"+++++@;,,_!!)',,,+@+++++",
"++++++*>,,,,,,,,>*++++++",
"++++++&%>,,,,,,>%&++++++",
"+++++++&*+>]]:+*&+++++++",
"+++++++++@%$$%@+++++++++",
"++++++++++++++++++++++++",
"++++++++++++++++++++++++",
"++++++++++++++++++++++++",
"++++++++++++++++++++++++",
"++++++++++++++++++++++++"};
