/* XPM */
static char * top_right_active_shaded_xpm[] = {
"5 24 5 1",
" 	c None",
".	c #EEEFF1",
"+	c #ECEDF0",
"@	c #E7E8EB",
"#	c #E8E9EB",
"...+ ",
"@@@#+",
"@@@@@",
"@@@@@",
"@@@@@",
"@@@@@",
"@@@@@",
"@@@@@",
"@@@@@",
"@@@@@",
"@@@@@",
"@@@@@",
"@@@@@",
"@@@@@",
"@@@@@",
"@@@@@",
"@@@@@",
"@@@@@",
"@@@@@",
"@@@@@",
"@@@@@",
"@@@@@",
"@@@@@",
"@@@@@"};
