/* XPM */
static char * top_left_active_xpm[] = {
"5 24 5 1",
" 	c None",
".	c #ECEDF0",
"+	c #EEEFF1",
"@	c #E8E9EB",
"#	c #E7E8EB",
" .+++",
".@###",
"#####",
"#####",
"#####",
"#####",
"#####",
"#####",
"#####",
"#####",
"#####",
"#####",
"#####",
"#####",
"#####",
"#####",
"#####",
"#####",
"#####",
"#####",
"#####",
"#####",
"#####",
"#####"};
