/* XPM */
static char * top_left_inactive_xpm[] = {
"2 28 4 1",
" 	c None",
".	c #ECEDF0",
"+	c #E8E9EB",
"@	c #E7E8EB",
" .",
".+",
"@@",
"@@",
"@@",
"@@",
"@@",
"@@",
"@@",
"@@",
"@@",
"@@",
"@@",
"@@",
"@@",
"@@",
"@@",
"@@",
"@@",
"@@",
"@@",
"@@",
"@@",
"@@",
"@@",
"@@",
"@@",
"@@"};
