/* XPM */
static char * top_right_active_xpm[] = {
"2 28 4 1",
" 	c None",
".	c #ECEDF0",
"+	c #E8E9EB",
"@	c #E7E8EB",
". ",
"+.",
"@@",
"@@",
"@@",
"@@",
"@@",
"@@",
"@@",
"@@",
"@@",
"@@",
"@@",
"@@",
"@@",
"@@",
"@@",
"@@",
"@@",
"@@",
"@@",
"@@",
"@@",
"@@",
"@@",
"@@",
"@@",
"@@"};
